<?xml version="1.0" encoding="utf-8"?>
<!-- Generated by IcoMoon.io -->
<!DOCTYPE svg PUBLIC "-//W3C//DTD SVG 1.1//EN" "http://www.w3.org/Graphics/SVG/1.1/DTD/svg11.dtd">
<svg version="1.1" xmlns="http://www.w3.org/2000/svg" xmlns:xlink="http://www.w3.org/1999/xlink" width="25" height="32" viewBox="0 0 25 32">
<path d="M21.943 9.6h-18.743v-6.4h18.743v6.4zM21.943 16h-4.571v-3.2h4.8v3.2h-0.229zM21.943 22.4h-4.571v-3.2h4.8v3.2h-0.229zM21.943 28.8h-4.571v-3.2h4.8v3.2h-0.229zM14.857 16h-4.571v-3.2h4.8v3.2h-0.229zM14.857 22.4h-4.571v-3.2h4.8v3.2h-0.229zM14.857 28.8h-4.571v-3.2h4.8v3.2h-0.229zM7.771 16h-4.571v-3.2h4.8v3.2h-0.229zM7.771 22.4h-4.571v-3.2h4.8v3.2h-0.229zM7.771 28.8h-4.571v-3.2h4.8v3.2h-0.229zM21.943 0h-18.743c-1.829 0-3.2 1.371-3.2 3.2v25.6c0 1.829 1.371 3.2 3.2 3.2h18.743c1.831 0 3.2-1.371 3.2-3.2v-25.6c0-1.829-1.371-3.2-3.2-3.2z"></path>
</svg>
