<?xml version="1.0" encoding="utf-8"?>
<!-- Generated by IcoMoon.io -->
<!DOCTYPE svg PUBLIC "-//W3C//DTD SVG 1.1//EN" "http://www.w3.org/Graphics/SVG/1.1/DTD/svg11.dtd">
<svg version="1.1" xmlns="http://www.w3.org/2000/svg" xmlns:xlink="http://www.w3.org/1999/xlink" width="32" height="32" viewBox="0 0 32 32">
<path d="M23.734 13.334l-6.934 8.266c-0.266 0.266-0.534 0.266-0.8 0.266s-0.534-0.266-0.8-0.266l-6.934-8.266c-0.266-0.266-0.266-0.534-0.266-0.8 0.266-0.266 0.534-0.534 0.8-0.534h13.866c0.266 0 0.8 0.266 0.8 0.534 0.534 0.266 0.534 0.534 0.266 0.8zM16 0c-8.8 0-16 7.2-16 16s7.2 16 16 16c8.8 0 16-7.2 16-16s-7.2-16-16-16z"></path>
</svg>
