<?xml version="1.0" encoding="utf-8"?>
<!-- Generated by IcoMoon.io -->
<!DOCTYPE svg PUBLIC "-//W3C//DTD SVG 1.1//EN" "http://www.w3.org/Graphics/SVG/1.1/DTD/svg11.dtd">
<svg version="1.1" xmlns="http://www.w3.org/2000/svg" xmlns:xlink="http://www.w3.org/1999/xlink" width="32" height="32" viewBox="0 0 32 32">
<path d="M31 23.33c0-2.906-2.378-5.284-5.286-5.284s-5.286 2.376-5.286 5.284c0 2.908 2.376 5.284 5.286 5.284s5.286-2.376 5.286-5.284zM25.714 27.558c-0.442 0-0.88-0.352-0.88-0.88v-2.464h-2.292c-0.44 0-0.88-0.444-0.88-0.882 0-0.528 0.354-0.966 0.88-0.966h2.292v-2.382c0-0.53 0.44-0.88 0.88-0.88s0.88 0.352 0.88 0.88v2.464h2.376c0.442 0 0.792 0.442 0.792 0.968 0 0.442-0.352 0.882-0.792 0.882h-2.376v2.466c0.002 0.352-0.44 0.794-0.88 0.794z"></path>
<path d="M15.198 18.21h-5.346c-0.3 0-0.544 0.244-0.544 0.542 0 0.296 0.244 0.542 0.544 0.542h5.346c0.298 0 0.542-0.246 0.542-0.542-0.002-0.296-0.244-0.542-0.542-0.542z"></path>
<path d="M18.786 13.752h-8.934c-0.3 0-0.544 0.242-0.544 0.542s0.244 0.544 0.544 0.544h8.934c0.298 0 0.542-0.246 0.542-0.544s-0.244-0.542-0.542-0.542z"></path>
<path d="M24.124 9.352h-14.226c-0.3 0-0.542 0.242-0.542 0.542s0.242 0.542 0.542 0.542h14.224c0.298 0 0.542-0.24 0.542-0.542s-0.242-0.542-0.54-0.542z"></path>
<path d="M28.844 21.784c-0.484 0-0.966 0-1.446 0z"></path>
<path d="M24.192 25.432c0 0.484 0 0.97 0 1.45z"></path>
<path d="M26.312 3.386h-21.5c-1.396 0-2.53 1.134-2.53 2.53v2.004c-0.718 0.068-1.282 0.668-1.282 1.402s0.564 1.332 1.284 1.404v1.608c-0.72 0.068-1.284 0.666-1.284 1.404 0 0.734 0.564 1.332 1.284 1.4v1.712c-0.72 0.074-1.284 0.672-1.284 1.406s0.564 1.336 1.284 1.402v4.694c0 1.394 1.134 2.53 2.53 2.53h19.378c0-0.478 0-0.964 0-1.45h-19.38c-0.596 0-1.086-0.484-1.086-1.080v-4.676h1.106c0.16 0.428 0.568 0.734 1.048 0.734 0.622 0 1.124-0.502 1.124-1.122s-0.502-1.124-1.124-1.124c-0.498 0-0.92 0.332-1.062 0.786h-1.092v-3.798h1.076c0.132 0.476 0.56 0.826 1.078 0.826 0.622 0 1.124-0.502 1.124-1.124 0-0.62-0.502-1.118-1.124-1.118-0.466 0-0.864 0.286-1.034 0.692h-1.12v-3.69h1.048c0.066 0.558 0.532 0.992 1.106 0.992 0.622 0 1.124-0.504 1.124-1.124s-0.502-1.122-1.124-1.122c-0.4 0-0.748 0.212-0.946 0.53h-1.208v-4.098c0-0.598 0.49-1.084 1.086-1.084h21.5c0.6 0 1.086 0.486 1.086 1.084v15.868c0.478 0 0.96 0 1.446 0v-15.868c0-1.394-1.136-2.53-2.532-2.53zM2.284 18.936c-0.32-0.064-0.56-0.346-0.56-0.68s0.24-0.618 0.56-0.678v1.358zM2.284 14.416c-0.32-0.064-0.56-0.344-0.56-0.678s0.24-0.618 0.56-0.682v1.36zM2.284 10.002c-0.32-0.062-0.56-0.344-0.56-0.68s0.24-0.618 0.56-0.684v1.364z"></path>
</svg>
