<?xml version="1.0" encoding="utf-8"?>
<!-- Generated by IcoMoon.io -->
<!DOCTYPE svg PUBLIC "-//W3C//DTD SVG 1.1//EN" "http://www.w3.org/Graphics/SVG/1.1/DTD/svg11.dtd">
<svg version="1.1" xmlns="http://www.w3.org/2000/svg" xmlns:xlink="http://www.w3.org/1999/xlink" width="90" height="32" viewBox="0 0 90 32">
<path fill="#fff" d="M71.844 6.228c0 0-1.915 0.239-3.942 0.501 0.185 0.159 0.368 0.318 0.548 0.479 0.905 0.002 1.644 0.039 1.896 0.14 0 0 2.887 10.293 4.289 12.030 0 0-15.755 2.126-17.632 5.819 0 0 15.175-4.663 19.968-3.616 0 0.002-5.114-12.877-5.127-15.353z"></path>
<path fill="#fff" d="M75.133 7.161l-2.464 0.331 0.277 1.109 1.096 0.312c0 0 3.992 11.688 5.531 13.926 0 0-10.864-1.017-22.842 3.313 0 0 17.561-3.061 25.861-1.43 0.002 0-7.382-15.392-7.459-17.561z"></path>
<path fill="#fcd305" d="M76.356 25.1l-18.431 1.668 17.926 0.933z"></path>
<path fill="#fff" d="M37.234 16.363v-5.929h-1.427v-2.218h1.427v-3.091h2.582v3.091h3.029v2.218h-3.029v5.523c0 1.002 0.512 1.406 1.389 1.406 0.574 0 1.088-0.129 1.599-0.383v2.111c-0.643 0.365-1.367 0.578-2.326 0.578-1.9 0-3.244-0.832-3.244-3.306z"></path>
<path fill="#fff" d="M44.666 3.908h2.582v15.568h-2.582v-15.568z"></path>
<path fill="#fff" d="M56.347 19.476v-1.384c-0.763 0.916-1.937 1.623-3.644 1.623-2.132 0-4.009-1.217-4.009-3.478v-0.043c0-2.496 1.939-3.691 4.562-3.691 1.365 0 2.24 0.193 3.115 0.471v-0.215c0-1.556-0.98-2.408-2.773-2.408-1.258 0-2.195 0.275-3.22 0.703l-0.705-2.068c1.238-0.555 2.457-0.939 4.289-0.939 3.328 0 4.949 1.748 4.949 4.757v6.673h-2.562zM56.414 14.764c-0.664-0.258-1.58-0.447-2.582-0.447-1.621 0-2.582 0.66-2.582 1.748v0.045c0 1.066 0.961 1.664 2.178 1.664 1.707 0 2.988-0.963 2.988-2.371v-0.638z"></path>
<path fill="#fff" d="M59.828 18.006l1.15-1.748c1.217 0.918 2.541 1.384 3.691 1.384 1.111 0 1.748-0.466 1.748-1.212v-0.043c0-0.875-1.193-1.174-2.515-1.58-1.662-0.469-3.519-1.152-3.519-3.304v-0.045c0-2.135 1.769-3.433 4.009-3.433 1.408 0 2.943 0.49 4.138 1.279l-1.023 1.836c-1.092-0.664-2.24-1.068-3.179-1.068-1.004 0-1.578 0.469-1.578 1.129v0.043c0 0.81 1.215 1.152 2.537 1.578 1.647 0.512 3.498 1.26 3.498 3.287v0.041c0 2.367-1.834 3.541-4.179 3.541-1.597 0.002-3.371-0.576-4.777-1.683z"></path>
<path fill="#fff" d="M36.377 19.513h-2.79l-1.524-3.631h-7.109l-1.546 3.631h-2.709l6.615-15.142h2.448l6.615 15.142zM28.496 7.526l-2.577 6.013h5.176l-2.599-6.013z"></path>
<path fill="#fff" d="M8.207 15.966h2.988v-1.737h-2.988v-1.363h3.308l-1.096-1.902h-4.693v8.27h6.617v-1.905h-4.136z"></path>
<path fill="#fff" d="M16.746 10.963l-1.406 2.698-1.399-2.698h-2.745l2.891 5.002v3.268h2.474v-3.268l2.891-5.002z"></path>
</svg>
