<?xml version="1.0" encoding="utf-8"?>
<!-- Generated by IcoMoon.io -->
<!DOCTYPE svg PUBLIC "-//W3C//DTD SVG 1.1//EN" "http://www.w3.org/Graphics/SVG/1.1/DTD/svg11.dtd">
<svg version="1.1" xmlns="http://www.w3.org/2000/svg" xmlns:xlink="http://www.w3.org/1999/xlink" width="26" height="32" viewBox="0 0 26 32">
<path d="M7.6 32c-4 0-6.8-3.2-6.8-6.2 0-1.2 0.4-2.4 1.2-3.6l11.2-15.4c0.8-1.2 2-1.8 3.4-1.8 2 0 4 1.8 4 3.8 0 0.8-0.2 1.4-0.6 2l-8.6 11.8c-0.2 0.4-0.6 0.6-0.8 0.6-0.8 0-1.6-0.6-1.6-1.2 0-0.2 0.2-0.4 0.2-0.8l8.4-11.8c0.2-0.2 0.2-0.4 0.2-0.8 0-0.6-0.4-1.4-1.2-1.4-0.4 0-1 0.2-1.2 0.6l-11.2 15.4c-0.4 0.6-0.8 1.4-0.8 2.2 0 1.8 1.6 3.6 4.2 3.6 1.4 0 2.6-0.6 3.4-1.6l11.2-15.4c0.8-1.2 1.2-2.4 1.2-3.6 0-3-2.6-6.4-6.6-6.4-2.2 0-4.4 1-5.6 2.6l-8.6 12c-0.4 0.8-0.8 1-1.2 1-0.8 0-1.4-0.6-1.4-1.2 0-0.2 0-0.2 0.2-0.6l8.6-12c1.8-2.4 4.8-3.8 7.8-3.8 5.6 0 9.4 4.6 9.4 8.8 0 1.8-0.6 3.4-1.6 4.8l-11.2 15.4c-1.2 2-3.4 3-5.6 3z"></path>
</svg>
