<?xml version="1.0" encoding="utf-8"?>
<!-- Generated by IcoMoon.io -->
<!DOCTYPE svg PUBLIC "-//W3C//DTD SVG 1.1//EN" "http://www.w3.org/Graphics/SVG/1.1/DTD/svg11.dtd">
<svg version="1.1" xmlns="http://www.w3.org/2000/svg" xmlns:xlink="http://www.w3.org/1999/xlink" width="28" height="32" viewBox="0 0 28 32">
<path d="M9.6 5.486h8.458c0.686 0 1.372-0.458 1.372-1.142v0c0 0 0-1.6 0-1.6 0-0.686-0.458-1.142-1.142-1.142 0 0-0.228 0-0.228 0h-2.514c0-0.914-0.686-1.6-1.372-1.6h-0.458c-0.686 0-1.372 0.686-1.372 1.372v0h-1.372c0 0-1.6 0-1.6 0-0.686 0-1.142 0.686-1.142 1.142 0 0 0 0 0 0.228v1.372c0 0.914 0.458 1.372 1.372 1.372z"></path>
<path d="M17.828 17.372c-3.428 3.658-6.4 8-6.4 8l-7.772-6.858 1.828-1.6 5.028 3.658c0 0 2.514-2.972 5.486-5.486 3.2-2.514 6.858-4.572 6.858-4.572l0.686 1.372c0 0-3.2 2.514-5.714 5.486zM24.686 1.6h-4.114v2.972c0 1.372-0.914 2.286-2.286 2.286h-9.142c-1.372 0-2.286-0.914-2.286-2.286v-2.972h-4.114c-1.6 0-2.742 1.142-2.742 2.742v24.914c0 1.6 1.142 2.742 2.742 2.742h21.942c1.6 0 2.742-1.142 2.742-2.742v-24.914c0-1.6-1.142-2.742-2.742-2.742z"></path>
</svg>
