<?xml version="1.0" encoding="utf-8"?>
<!-- Generated by IcoMoon.io -->
<!DOCTYPE svg PUBLIC "-//W3C//DTD SVG 1.1//EN" "http://www.w3.org/Graphics/SVG/1.1/DTD/svg11.dtd">
<svg version="1.1" xmlns="http://www.w3.org/2000/svg" xmlns:xlink="http://www.w3.org/1999/xlink" width="44" height="32" viewBox="0 0 44 32">
<path d="M41.92 32c-1.6 0-2.88-1.28-2.88-2.88v-10.24c0-3.84-3.52-6.72-7.040-6.72h-18.88v5.44c0 0.32-0.32 0.96-0.64 0.96-0.32 0.32-0.96 0.32-1.28 0l-10.56-8.32c-0.32-0.32-0.64-0.64-0.64-0.96s0.32-0.64 0.64-0.96l10.88-8c0.32-0.32 0.32-0.32 0.64-0.32s0.32 0 0.64 0c0.32 0.32 0.64 0.64 0.64 0.96v5.44h18.88c6.72 0 12.48 5.44 12.48 12.48v10.24c0 1.6-1.28 2.88-2.88 2.88z"></path>
</svg>
