<?xml version="1.0" encoding="utf-8"?>
<!-- Generated by IcoMoon.io -->
<!DOCTYPE svg PUBLIC "-//W3C//DTD SVG 1.1//EN" "http://www.w3.org/Graphics/SVG/1.1/DTD/svg11.dtd">
<svg version="1.1" xmlns="http://www.w3.org/2000/svg" xmlns:xlink="http://www.w3.org/1999/xlink" width="23" height="32" viewBox="0 0 23 32">
<path fill="#f4f4f4" d="M22.069 32h-22.069v-32h22.069c0.236 0 0.428 0.192 0.428 0.428v31.146c0 0.234-0.192 0.426-0.428 0.426z"></path>
<path fill="#000" d="M3.061 3.864h1.095v-0.633h-1.095v-0.501h1.209l-0.402-0.696h-1.716v3.027h2.419v-0.698h-1.511z"></path>
<path fill="#000" d="M6.186 2.034l-0.516 0.988-0.511-0.988h-1.003l1.056 1.83v1.197h0.903v-1.197l1.059-1.83z"></path>
<path fill="#ffd400" d="M5.945 27.362v0 0 0zM5.945 27.362l16.552-2.889v-3.188l-16.552 6.076z"></path>
<path fill="#707172" d="M0 29.535l0.041-0.015v-5.519l-0.041-0.022z"></path>
<path fill="#707172" d="M0.163 29.472l0.041-0.015v-5.366l-0.041-0.019z"></path>
<path fill="#707172" d="M0.329 29.413l0.039-0.015v-5.212l-0.039-0.022z"></path>
<path fill="#707172" d="M0.492 29.355l0.041-0.015v-5.057l-0.041-0.024z"></path>
<path fill="#707172" d="M0.657 29.294l0.041-0.015v-4.906l-0.041-0.022z"></path>
<path fill="#707172" d="M0.82 29.236l0.041-0.015v-4.753l-0.041-0.024z"></path>
<path fill="#707172" d="M0.983 29.172l0.041-0.015v-4.597l-0.041-0.022z"></path>
<path fill="#707172" d="M1.149 29.114l0.039-0.015v-4.446l-0.039-0.022z"></path>
<path fill="#707172" d="M1.312 29.053l0.041-0.012v-4.293l-0.041-0.024z"></path>
<path fill="#707172" d="M1.475 28.995l0.044-0.017v-4.137l-0.044-0.022z"></path>
<path fill="#707172" d="M1.64 28.936l0.041-0.017v-3.986l-0.041-0.024z"></path>
<path fill="#707172" d="M1.806 28.873l0.039-0.015v-3.83l-0.039-0.024z"></path>
<path fill="#707172" d="M1.969 28.815l0.041-0.015v-3.679l-0.041-0.024z"></path>
<path fill="#707172" d="M2.132 28.754l0.041-0.012v-3.529l-0.041-0.019z"></path>
<path fill="#707172" d="M2.297 28.695l0.039-0.017v-3.37l-0.039-0.022z"></path>
<path fill="#707172" d="M2.46 28.637l0.039-0.017v-3.219l-0.039-0.022z"></path>
<path fill="#707172" d="M2.626 28.574l0.039-0.015v-3.064l-0.039-0.024z"></path>
<path fill="#707172" d="M2.789 28.515l0.041-0.017v-2.908l-0.041-0.024z"></path>
<path fill="#707172" d="M2.952 28.454l0.041-0.012v-2.762l-0.041-0.022z"></path>
<path fill="#707172" d="M3.117 28.396l0.039-0.017v-2.604l-0.039-0.024z"></path>
<path fill="#707172" d="M3.28 28.335l0.041-0.015v-2.45l-0.041-0.024z"></path>
<path fill="#707172" d="M3.446 28.274l0.039-0.015v-2.3l-0.039-0.022z"></path>
<path fill="#707172" d="M3.609 28.216l0.041-0.015v-2.146l-0.041-0.024z"></path>
<path fill="#707172" d="M3.772 28.155l0.041-0.015v-1.993l-0.041-0.022z"></path>
<path fill="#707172" d="M3.937 28.094l0.039-0.015v-1.84l-0.039-0.022z"></path>
<path fill="#707172" d="M4.1 28.036l0.041-0.015v-1.686l-0.041-0.022z"></path>
<path fill="#707172" d="M4.266 27.975l0.039-0.015v-1.533l-0.039-0.022z"></path>
<path fill="#707172" d="M4.429 27.917l0.039-0.017v-1.38l-0.039-0.022z"></path>
<path fill="#707172" d="M4.592 27.856l0.041-0.015v-1.224l-0.041-0.024z"></path>
<path fill="#707172" d="M4.757 27.795l0.039-0.015v-1.073l-0.039-0.019z"></path>
<path fill="#707172" d="M4.92 27.734l0.041-0.012v-0.92l-0.041-0.024z"></path>
<path fill="#707172" d="M5.083 27.676l0.041-0.015v-0.764l-0.041-0.024z"></path>
<path fill="#707172" d="M5.249 27.615l0.039-0.015v-0.611l-0.039-0.024z"></path>
<path fill="#707172" d="M5.414 27.556l0.039-0.015v-0.46l-0.039-0.024z"></path>
<path fill="#707172" d="M5.577 27.496l0.039-0.015v-0.304l-0.039-0.024z"></path>
<path fill="#707172" d="M5.741 27.435l0.039-0.015v-0.153l-0.039-0.022z"></path>
<path fill="#707172" d="M5.906 27.376l0.039-0.015-0.039-0.024z"></path>
</svg>
