<?xml version="1.0" encoding="utf-8"?>
<!-- Generated by IcoMoon.io -->
<!DOCTYPE svg PUBLIC "-//W3C//DTD SVG 1.1//EN" "http://www.w3.org/Graphics/SVG/1.1/DTD/svg11.dtd">
<svg version="1.1" xmlns="http://www.w3.org/2000/svg" xmlns:xlink="http://www.w3.org/1999/xlink" width="38" height="32" viewBox="0 0 38 32">
<path d="M11.2 1.28h27.2v4.8h-27.2v-4.8z"></path>
<path d="M22.4 13.44h16v4.8h-16v-4.8z"></path>
<path d="M7.36 3.84c0 1.92-1.6 3.84-3.84 3.84-1.92-0.32-3.52-1.92-3.52-3.84 0-2.24 1.6-3.84 3.84-3.84 1.92 0 3.52 1.6 3.52 3.84z"></path>
<path d="M11.2 25.92h27.2v4.8h-27.2v-4.8z"></path>
<path d="M7.36 28.16c0 1.92-1.6 3.84-3.84 3.84-1.92 0-3.52-1.6-3.52-3.84s1.6-3.84 3.84-3.84c1.92 0.32 3.52 1.92 3.52 3.84z"></path>
<path d="M18.56 16c0 1.92-1.6 3.84-3.84 3.84s-3.52-1.92-3.52-3.84 1.6-3.84 3.84-3.84 3.52 1.92 3.52 3.84z"></path>
</svg>
