<?xml version="1.0" encoding="utf-8"?>
<!-- Generated by IcoMoon.io -->
<!DOCTYPE svg PUBLIC "-//W3C//DTD SVG 1.1//EN" "http://www.w3.org/Graphics/SVG/1.1/DTD/svg11.dtd">
<svg version="1.1" xmlns="http://www.w3.org/2000/svg" xmlns:xlink="http://www.w3.org/1999/xlink" width="33" height="32" viewBox="0 0 33 32">
<path d="M27.686 6.603l-3.699-3.697c-1.435-1.435-3.774-1.435-5.211 0l-13.433 13.444c-1.046 1.044-1.322 2.566-0.847 3.869l-2.653 7.607c-0.124 0.378 0.541 1.044 0.922 0.931l7.625-2.651c1.302 0.464 2.814 0.181 3.849-0.858l13.445-13.442c1.437-1.426 1.437-3.765 0.002-5.202v0zM24.843 11.121l-10.059 10.048c-0.6 0.609-1.626 0.572-2.282-0.086l-2.995-2.995c-0.656-0.655-0.693-1.682-0.086-2.291l10.052-10.048c0.607-0.609 1.626-0.572 2.28 0.084l2.995 2.993c0.656 0.658 0.702 1.686 0.095 2.295v0z"></path>
<path d="M2.105 12.63h27.154v2.13h-27.154v-2.13z"></path>
</svg>
