<?xml version="1.0" encoding="utf-8"?>
<!-- Generated by IcoMoon.io -->
<!DOCTYPE svg PUBLIC "-//W3C//DTD SVG 1.1//EN" "http://www.w3.org/Graphics/SVG/1.1/DTD/svg11.dtd">
<svg version="1.1" xmlns="http://www.w3.org/2000/svg" xmlns:xlink="http://www.w3.org/1999/xlink" width="32" height="32" viewBox="0 0 32 32">
<path d="M28 12h-24c-2.2 0-4 1.8-4 4v4h32v-4c0-2.2-1.8-4-4-4z"></path>
<path d="M16 16v0c-2.2 0-4-1.8-4-4v-8c0-2.2 1.8-4 4-4s4 1.8 4 4v8c0 2.2-1.8 4-4 4z"></path>
<path d="M0 22h2v10h-2v-10z"></path>
<path d="M6 22h2v10h-2v-10z"></path>
<path d="M12 22h2v10h-2v-10z"></path>
<path d="M18 22h2v10h-2v-10z"></path>
<path d="M24 22h2v10h-2v-10z"></path>
<path d="M30 22h2v10h-2v-10z"></path>
</svg>
