<?xml version="1.0" encoding="utf-8"?>
<!-- Generated by IcoMoon.io -->
<!DOCTYPE svg PUBLIC "-//W3C//DTD SVG 1.1//EN" "http://www.w3.org/Graphics/SVG/1.1/DTD/svg11.dtd">
<svg version="1.1" xmlns="http://www.w3.org/2000/svg" xmlns:xlink="http://www.w3.org/1999/xlink" width="32" height="32" viewBox="0 0 32 32">
<path d="M27.466 4.534c-6.134-6.134-16.266-5.866-22.666 0.266-6.134 6.4-6.4 16.534-0.266 22.666s16.266 5.866 22.666-0.534c6.4-6.134 6.4-16.266 0.266-22.4zM23.2 23.2c-0.8 0.8-2.134 0.8-2.934 0l-4.266-4.266-4 4c-0.8 0.8-2.134 0.8-2.934 0-1.066-0.534-1.066-1.866 0-2.666l4-4.266-4-4c-1.066-0.8-1.066-2.134 0-3.2 0.8-0.8 1.866-0.8 2.666 0l4.266 4.266 4.266-4.266c0.8-0.8 2.134-0.8 2.934 0s0.8 2.134 0 2.934l-4.266 4.266 4.266 4.266c0.534 0.8 0.534 2.134 0 2.934z"></path>
</svg>
