<?xml version="1.0" encoding="utf-8"?>
<!-- Generated by IcoMoon.io -->
<!DOCTYPE svg PUBLIC "-//W3C//DTD SVG 1.1//EN" "http://www.w3.org/Graphics/SVG/1.1/DTD/svg11.dtd">
<svg version="1.1" xmlns="http://www.w3.org/2000/svg" xmlns:xlink="http://www.w3.org/1999/xlink" width="41" height="32" viewBox="0 0 41 32">
<path fill="#646565" d="M19.697 15.088h0.075v0.075h-0.075v-0.075z"></path>
<path fill="#646565" d="M19.846 15.088h0.075v0.075h-0.075v-0.075z"></path>
<path fill="#646565" d="M19.995 15.088h0.075v0.075h-0.075v-0.075z"></path>
<path fill="#646565" d="M20.253 14.947h-0.754v2.162h2.441v-2.162h-1.687zM19.568 15.017h0.641l0.105 0.209h-0.746v-0.209zM21.87 17.040h-2.302v-1.744h2.302v1.744zM20.392 15.226l-0.105-0.209h1.583v0.209h-1.478zM20.927 15.793c-0.002 0-0.005 0.001-0.007 0.002-0.006 0.002-0.012 0.007-0.015 0.013l-0.366 0.626c-0.007 0.013-0.003 0.029 0.010 0.036s0.029 0.003 0.036-0.010v0l0.366-0.627c0.008-0.012 0.005-0.028-0.007-0.036-0.005-0.004-0.012-0.005-0.018-0.004zM20.365 15.899c-0.007 0-0.013 0.003-0.018 0.008l-0.201 0.203c-0.003 0.001-0.006 0.004-0.008 0.007-0.010 0.010-0.010 0.026 0 0.036 0.003 0.003 0.005 0.005 0.008 0.007l0.201 0.203c0.010 0.010 0.026 0.010 0.036 0s0.010-0.026 0-0.036l-0.191-0.191 0.191-0.191c0.010-0.010 0.010-0.026 0-0.036-0.005-0.005-0.011-0.008-0.018-0.008zM21.096 15.899c-0.007 0-0.013 0.003-0.018 0.008-0.010 0.010-0.010 0.026 0 0.036l0.191 0.191-0.191 0.191c-0.010 0.010-0.010 0.026 0 0.036s0.026 0.010 0.036 0l0.201-0.203c0.003-0.001 0.006-0.004 0.008-0.007 0.010-0.010 0.010-0.026 0-0.036-0.003-0.003-0.005-0.005-0.008-0.007l-0.201-0.203c-0.005-0.005-0.011-0.008-0.018-0.008z"></path>
</svg>
