<?xml version="1.0" encoding="utf-8"?>
<!-- Generated by IcoMoon.io -->
<!DOCTYPE svg PUBLIC "-//W3C//DTD SVG 1.1//EN" "http://www.w3.org/Graphics/SVG/1.1/DTD/svg11.dtd">
<svg version="1.1" xmlns="http://www.w3.org/2000/svg" xmlns:xlink="http://www.w3.org/1999/xlink" width="28" height="32" viewBox="0 0 28 32">
<path d="M23.288 0h-14.578c-1.244 0-2.134 0.888-2.134 2.134v21.334c0 1.244 0.888 2.134 2.134 2.134h17.778c1.066 0 2.134-0.888 2.134-2.134v-18.134l-5.334-5.334zM22.222 2.134h0.712l3.556 3.556v0.712h-4.088v-4.266zM26.312 23.466h-17.778v-21.334h12.444v3.2c0 1.244 0.888 2.134 2.134 2.134h3.2v16z"></path>
<path d="M19.734 27.734v2.134h-17.778v-21.334h2.312v-2.134h-2.134c-1.244 0-2.134 0.888-2.134 2.134v21.334c0 1.244 0.888 2.134 2.134 2.134h17.778c1.066 0 2.134-0.888 2.134-2.134v-2.134h-2.312z"></path>
</svg>
