<?xml version="1.0" encoding="utf-8"?>
<!-- Generated by IcoMoon.io -->
<!DOCTYPE svg PUBLIC "-//W3C//DTD SVG 1.1//EN" "http://www.w3.org/Graphics/SVG/1.1/DTD/svg11.dtd">
<svg version="1.1" xmlns="http://www.w3.org/2000/svg" xmlns:xlink="http://www.w3.org/1999/xlink" width="32" height="32" viewBox="0 0 32 32">
<path d="M31.673 26.887c-1.817 4.345-6.065 5.11-7.449 5.11-0.409 0-6.759 0.335-15.892-8.327-7.348-6.969-8.249-14.469-8.325-15.894-0.076-1.388 0.32-4.869 5.108-7.454 0.596-0.32 1.767-0.46 2.073-0.162 0.135 0.138 4.153 6.752 4.258 6.969s0.158 0.433 0.158 0.647c0 0.298-0.214 0.679-0.647 1.132s-0.901 0.871-1.403 1.246c-0.505 0.377-0.975 0.778-1.403 1.201s-0.647 0.77-0.647 1.044c0.030 0.704 0.608 3.232 5.007 7.097 4.404 3.872 6.523 4.96 6.727 5.039 0.204 0.071 0.377 0.108 0.505 0.108 0.273 0 0.623-0.214 1.044-0.642 0.426-0.433 1.846-2.378 2.299-2.809s0.827-0.647 1.132-0.647c0.212 0 0.423 0.052 0.642 0.158s6.841 3.98 6.966 4.106c0.345 0.354 0.103 1.455-0.153 2.075z"></path>
</svg>
