<?xml version="1.0" encoding="utf-8"?>
<!-- Generated by IcoMoon.io -->
<!DOCTYPE svg PUBLIC "-//W3C//DTD SVG 1.1//EN" "http://www.w3.org/Graphics/SVG/1.1/DTD/svg11.dtd">
<svg version="1.1" xmlns="http://www.w3.org/2000/svg" xmlns:xlink="http://www.w3.org/1999/xlink" width="32" height="32" viewBox="0 0 32 32">
<path d="M16 0c-8.8 0-16 7.2-16 16s7.2 16 16 16c8.8 0 16-7.2 16-16s-7.2-16-16-16zM16.2 5.6c0.4-0.4 1-0.6 1.6-0.6 0.4 0 1 0.2 1.2 0.6 0.4 0.4 0.4 0.8 0.4 1.2 0 0.6-0.2 1.2-0.6 1.6-0.6 0.4-1 0.6-1.6 0.6-0.4 0-1-0.2-1.2-0.4-0.4-0.4-0.6-0.8-0.6-1.4s0.4-1.2 0.8-1.6zM19.2 23.4c-1.6 1.4-2.6 2.4-3.4 2.8s-1.4 0.6-2 0.6c-0.6 0-1-0.2-1.4-0.6-0.2-0.2-0.4-0.6-0.4-1.2 0-1.4 0.8-4.8 2.6-10.4 0 0 0-0.2 0-0.2s-0.2 0-0.2 0.2c-0.2 0-0.6 0.4-1.8 1.6-0.2 0.2-0.4 0.2-0.6 0l-0.8-0.6c-0.2 0-0.2-0.2-0.2-0.4s0-0.2 0.2-0.4c1.2-1.2 2.2-2.2 3.2-2.8s1.8-0.8 2.6-0.8c0.4 0 0.8 0.2 1.2 0.4 0.2 0.4 0.4 0.8 0.4 1.2 0 0.2-0.2 1-1 4.2-1.4 4.6-1.8 6.4-1.8 6.8 0.2 0 0.8-0.6 2-1.8 0.2-0.2 0.6-0.2 0.8 0l0.6 0.6c0.2 0.2 0.2 0.2 0.2 0.4s0 0.4-0.2 0.4z"></path>
</svg>
