<?xml version="1.0" encoding="utf-8"?>
<!-- Generated by IcoMoon.io -->
<!DOCTYPE svg PUBLIC "-//W3C//DTD SVG 1.1//EN" "http://www.w3.org/Graphics/SVG/1.1/DTD/svg11.dtd">
<svg version="1.1" xmlns="http://www.w3.org/2000/svg" xmlns:xlink="http://www.w3.org/1999/xlink" width="41" height="32" viewBox="0 0 41 32">
<path fill="#646565" d="M20.057 16.121c0 0.020 0 0.040 0 0.060h0.949v-0.060h-0.949z"></path>
<path fill="#646565" d="M20.057 16.355c0 0.020 0 0.040 0 0.060h0.816c0.020-0.022 0.042-0.042 0.065-0.060h-0.881z"></path>
<path fill="#646565" d="M19.603 14.688c0 0.819 0 1.638 0 2.456h1.22c-0.014-0.019-0.027-0.039-0.038-0.060h-1.123v-2.337h1.737v1.492c0.020 0.004 0.040 0.008 0.060 0.014v-1.566h-1.857z"></path>
<path fill="#646565" d="M20.057 16.589c0 0.020 0 0.040 0 0.060h0.682c0.006-0.020 0.013-0.040 0.021-0.060h-0.703z"></path>
<path fill="#646565" d="M21.296 16.307c-0.277 0-0.503 0.225-0.503 0.503s0.225 0.503 0.503 0.503 0.503-0.226 0.503-0.503c0-0.277-0.225-0.503-0.503-0.503zM21.296 16.367c0.245 0 0.443 0.198 0.443 0.443s-0.198 0.443-0.443 0.443c-0.245 0-0.443-0.198-0.443-0.443s0.198-0.443 0.443-0.443z"></path>
<path fill="#646565" d="M21.296 17.020l-0.21-0.21 0.042-0.042 0.137 0.137v-0.305h0.060v0.305l0.137-0.137 0.042 0.042-0.21 0.21z"></path>
<path fill="#646565" d="M20.532 15.184l-0.34 0.17c0 0.141 0 0.283 0 0.424l0.34 0.17 0.34-0.17v-0.424l-0.34-0.17zM20.532 15.251l0.28 0.14v0.35l-0.28 0.14-0.28-0.14v-0.35l0.28-0.14zM20.532 15.339l-0.107 0.054v0.114l0.107 0.054c0.036-0.018 0.072-0.036 0.107-0.054v-0.114l-0.107-0.054zM20.532 15.406l0.047 0.024v0.040l-0.047 0.024-0.047-0.024v-0.040l0.047-0.024zM20.347 15.566v0.135l0.185 0.092 0.185-0.092v-0.135h-0.060v0.098l-0.125 0.062-0.125-0.062v-0.098h-0.060z"></path>
</svg>
