<?xml version="1.0" encoding="utf-8"?>
<!-- Generated by IcoMoon.io -->
<!DOCTYPE svg PUBLIC "-//W3C//DTD SVG 1.1//EN" "http://www.w3.org/Graphics/SVG/1.1/DTD/svg11.dtd">
<svg version="1.1" xmlns="http://www.w3.org/2000/svg" xmlns:xlink="http://www.w3.org/1999/xlink" width="49" height="32" viewBox="0 0 49 32">
<path d="M13.878 17.836c0.268 0.162 0.396 0.485 0.396 0.965 0 1.034-0.61 2.004-1.829 2.907-1.216 0.906-2.848 1.356-4.894 1.356-2.257 0-4.081-0.714-5.474-2.142-1.388-1.428-2.082-3.382-2.082-5.868 0-3.385 1.090-6.486 3.274-9.305 2.183-2.826 4.943-4.231 8.276-4.231 1.642 0 2.912 0.391 3.815 1.172 0.906 0.778 1.356 1.871 1.356 3.274 0 2.095-1.088 3.919-3.269 5.474s-4.834 2.326-7.978 2.326h-0.665c-0.224 0-0.46-0.012-0.702-0.037-0.052 0.352-0.074 0.896-0.074 1.63 0 3.508 1.42 5.265 4.261 5.265 2.208-0.002 4.069-0.928 5.585-2.786zM4.47 11.946h0.379c2.287 0 4.17-0.554 5.652-1.669 1.487-1.11 2.225-2.55 2.225-4.318 0-1.73-0.748-2.594-2.252-2.594-1.25 0-2.417 0.788-3.505 2.358-1.086 1.573-1.92 3.646-2.498 6.22z"></path>
<path d="M18.929 22.988c-1.602 0-2.405-0.788-2.405-2.368 0-0.894 0.231-1.615 0.692-2.161 0.463-0.544 1.086-0.815 1.866-0.815 1.602 0 2.405 0.788 2.405 2.368 0 0.906-0.231 1.632-0.692 2.166-0.463 0.537-1.086 0.807-1.866 0.807z"></path>
<path d="M40.337 2.747c1.228-1.831 2.622-2.747 4.187-2.747 1.297 0 1.952 0.593 1.952 1.78 0 1.602-0.766 2.405-2.294 2.405 0-0.935-0.354-1.401-1.076-1.401-0.507 0-1.147 0.295-1.915 0.889 0.571 0.807 0.854 1.804 0.854 2.991 0 2.174-0.815 4.165-2.444 5.974s-3.774 2.715-6.442 2.715c-0.593 0-0.999-0.027-1.228-0.074-1.846 0.748-2.767 1.563-2.767 2.447 0 0.645 0.662 1.029 1.986 1.154l3.712 0.396c4.015 0.431 6.023 2.122 6.023 5.076 0 2.41-0.906 4.288-2.727 5.632s-4.411 2.016-7.783 2.016c-5.642 0-8.465-1.689-8.465-5.056 0-1.391 0.564-2.575 1.694-3.547 1.13-0.98 2.671-1.662 4.633-2.036-1.241-0.61-1.856-1.499-1.856-2.671 0-0.795 0.254-1.47 0.766-2.026 0.512-0.554 1.479-1.196 2.907-1.932-1.802-0.844-2.705-2.373-2.705-4.581 0-2.183 0.822-4.167 2.469-5.954s3.825-2.681 6.523-2.681c1.652 0.002 2.983 0.414 3.995 1.236zM33.9 22.572l-3.769-0.359c-0.19-0.017-0.743 0.113-1.674 0.379-0.928 0.268-1.726 0.756-2.395 1.477-0.672 0.716-1.004 1.602-1.004 2.651 0 2.245 1.824 3.37 5.474 3.37 2.272 0 4.005-0.421 5.196-1.26s1.792-1.967 1.792-3.397c0-1.691-1.209-2.641-3.618-2.858zM33.6 13.502c1.477 0 2.666-0.736 3.572-2.208 0.898-1.47 1.351-3.074 1.351-4.82 0-2.122-0.886-3.183-2.668-3.183-1.514 0-2.718 0.743-3.606 2.225-0.889 1.487-1.337 3.082-1.337 4.8-0.007 2.124 0.894 3.185 2.688 3.185z"></path>
<path d="M46.311 22.988c-1.602 0-2.405-0.788-2.405-2.368 0-0.894 0.231-1.615 0.694-2.161 0.46-0.544 1.081-0.815 1.863-0.815 1.602 0.002 2.405 0.793 2.405 2.373 0 0.906-0.229 1.632-0.692 2.166s-1.086 0.805-1.866 0.805z"></path>
</svg>
