<?xml version="1.0" encoding="utf-8"?>
<!-- Generated by IcoMoon.io -->
<!DOCTYPE svg PUBLIC "-//W3C//DTD SVG 1.1//EN" "http://www.w3.org/Graphics/SVG/1.1/DTD/svg11.dtd">
<svg version="1.1" xmlns="http://www.w3.org/2000/svg" xmlns:xlink="http://www.w3.org/1999/xlink" width="28" height="32" viewBox="0 0 28 32">
<path fill="#00af4f" d="M28 5.4v24c0 1.4-1.2 2.6-2.8 2.6h-22.4c-1.6 0-2.8-1.2-2.8-2.6v-26.8c0-1.4 1.2-2.6 2.8-2.6h19.2l6 5.4z"></path>
<path fill="#fff" d="M21 0.8v3c0 1.4 1.2 2.6 2.8 2.6h3.4z"></path>
<path fill="#fff" d="M2.8 8.8v17.4l12.8 2v-21.4z"></path>
<path fill="#00af4f" d="M10.4 21.2h1.8l-2-4 1.8-3.8h-1.6l-1 2.8-1-2.6h-1.4l1.4 3.6-1.6 3.6 1.4 0.2 1-2.6z"></path>
<path fill="#fff" d="M23.6 13h-3.6v-2h3.4v2zM23.6 16h-3.6v-2h3.4v2zM23.6 19h-3.6v-2.4h3.4v2.4zM23.6 22h-3.6v-2.4h3.4v2.4zM23.6 25h-3.6v-2.6h3.4v2.6zM16.4 10v4h4v4h-4v2h4v4h-4v2h8v-16h-8z"></path>
</svg>
