<?xml version="1.0" encoding="utf-8"?>
<!-- Generated by IcoMoon.io -->
<!DOCTYPE svg PUBLIC "-//W3C//DTD SVG 1.1//EN" "http://www.w3.org/Graphics/SVG/1.1/DTD/svg11.dtd">
<svg version="1.1" xmlns="http://www.w3.org/2000/svg" xmlns:xlink="http://www.w3.org/1999/xlink" width="32" height="32" viewBox="0 0 32 32">
<path d="M32 16c0-8.8-7.2-16-16-16s-16 7.2-16 16c0 8.8 7.2 16 16 16s16-7.2 16-16zM16 28.8c-1.334 0-2.666-1.066-2.666-2.666v-7.466h-6.934c-1.334 0-2.666-1.334-2.666-2.666 0-1.6 1.066-2.934 2.666-2.934h6.934v-7.2c0-1.6 1.334-2.666 2.666-2.666s2.666 1.066 2.666 2.666v7.466h7.2c1.334 0 2.4 1.334 2.4 2.934 0 1.334-1.066 2.666-2.4 2.666h-7.2v7.466c0 1.066-1.334 2.4-2.666 2.4z"></path>
</svg>
