<?xml version="1.0" encoding="utf-8"?>
<!-- Generated by IcoMoon.io -->
<!DOCTYPE svg PUBLIC "-//W3C//DTD SVG 1.1//EN" "http://www.w3.org/Graphics/SVG/1.1/DTD/svg11.dtd">
<svg version="1.1" xmlns="http://www.w3.org/2000/svg" xmlns:xlink="http://www.w3.org/1999/xlink" width="36" height="32" viewBox="0 0 36 32">
<path d="M1.8 27h31.8v2.2h-31.8v-2.2z"></path>
<path d="M34 10.8c0-0.2-0.4-0.4-0.6-0.4h-5.8v-2.8c0-0.4-0.2-0.6-0.6-0.6h-13.8l-2.6-3.4c-0.2-0.2-0.4-0.4-0.6-0.4h-7.2c-0.4 0-0.6 0.4-0.6 0.8v20c0 0.4 0.2 0.6 0.6 0.6 0 0 0 0 0.2 0h24.2c0.2 0 0.6-0.2 0.6-0.4l6.4-12.8c0-0.2 0-0.4-0.2-0.6zM3.6 4.6h6.2l2.4 3.4c0.2 0.2 0.4 0.2 0.6 0.2h13.6v2.2h-17c-0.2 0-0.4 0.2-0.6 0.4l-5.2 9.8v-16zM26.6 23.2h-22.8l5.8-11.4h22.8l-5.8 11.4z"></path>
</svg>
