<?xml version="1.0" encoding="utf-8"?>
<!-- Generated by IcoMoon.io -->
<!DOCTYPE svg PUBLIC "-//W3C//DTD SVG 1.1//EN" "http://www.w3.org/Graphics/SVG/1.1/DTD/svg11.dtd">
<svg version="1.1" xmlns="http://www.w3.org/2000/svg" xmlns:xlink="http://www.w3.org/1999/xlink" width="56" height="32" viewBox="0 0 56 32">
<path d="M28.444 27.022c-8.534 0-17.778-7.466-21.334-11.022 3.556-3.556 12.8-11.022 21.334-11.022s17.778 7.466 21.334 11.022c-3.556 3.556-12.8 11.022-21.334 11.022zM28.444 0c-13.512 0-26.312 13.866-27.022 14.222l-1.422 1.778 1.422 1.778c0.712 0.356 13.512 14.222 27.022 14.222s26.312-13.866 27.022-14.222l1.422-1.778-1.422-1.778c-0.712-0.356-13.512-14.222-27.022-14.222z"></path>
<path d="M19.556 16c0 4.978 4.266 8.888 8.888 8.888s8.888-3.912 8.888-8.888-3.912-8.888-8.888-8.888-8.888 3.912-8.888 8.888z"></path>
</svg>
