<?xml version="1.0" encoding="utf-8"?>
<!-- Generated by IcoMoon.io -->
<!DOCTYPE svg PUBLIC "-//W3C//DTD SVG 1.1//EN" "http://www.w3.org/Graphics/SVG/1.1/DTD/svg11.dtd">
<svg version="1.1" xmlns="http://www.w3.org/2000/svg" xmlns:xlink="http://www.w3.org/1999/xlink" width="57" height="32" viewBox="0 0 57 32">
<path d="M13.712 31.785l-1.346-4.421h-6.777l-1.351 4.421h-4.24l6.555-18.658h4.821l6.585 18.658h-4.247zM11.426 24.057c-1.246-4.005-1.947-6.274-2.105-6.798s-0.267-0.937-0.334-1.243c-0.281 1.086-1.081 3.765-2.402 8.041h4.841z"></path>
<path d="M41.481 32l-2.311-7.586h-11.621l-2.311 7.586h-7.278l11.246-32h8.265l11.289 32h-7.278zM37.561 18.745c-2.137-6.873-3.344-10.761-3.607-11.662-0.267-0.901-0.462-1.614-0.578-2.137-0.478 1.858-1.854 6.457-4.123 13.799h8.309z"></path>
<path d="M50.352 10.117h-4.665v-2.786h4.665v-4.686h2.786v4.69h4.651v2.786h-4.651v4.624h-2.786v-4.629z"></path>
</svg>
