<?xml version="1.0" encoding="utf-8"?>
<!-- Generated by IcoMoon.io -->
<!DOCTYPE svg PUBLIC "-//W3C//DTD SVG 1.1//EN" "http://www.w3.org/Graphics/SVG/1.1/DTD/svg11.dtd">
<svg version="1.1" xmlns="http://www.w3.org/2000/svg" xmlns:xlink="http://www.w3.org/1999/xlink" width="55" height="32" viewBox="0 0 55 32">
<path d="M13.714 32l-1.346-4.421h-6.777l-1.346 4.421h-4.245l6.558-18.656h4.818l6.585 18.656h-4.247zM11.426 24.272c-1.248-4.007-1.945-6.274-2.103-6.8s-0.272-0.939-0.338-1.243c-0.277 1.086-1.079 3.765-2.402 8.041h4.841z"></path>
<path d="M41.481 32l-2.313-7.586h-11.618l-2.311 7.586h-7.278l11.241-32h8.261l11.291 32h-7.275zM37.557 18.747c-2.137-6.871-3.342-10.763-3.607-11.664-0.27-0.898-0.459-1.611-0.576-2.137-0.485 1.861-1.854 6.462-4.126 13.801h8.306z"></path>
<path d="M43.826 7.854v-2.56h9.893v2.56h-9.893z"></path>
</svg>
