<?xml version="1.0" encoding="utf-8"?>
<!-- Generated by IcoMoon.io -->
<!DOCTYPE svg PUBLIC "-//W3C//DTD SVG 1.1//EN" "http://www.w3.org/Graphics/SVG/1.1/DTD/svg11.dtd">
<svg version="1.1" xmlns="http://www.w3.org/2000/svg" xmlns:xlink="http://www.w3.org/1999/xlink" width="32" height="32" viewBox="0 0 32 32">
<path d="M16 0c-8.686 0-16 7.086-16 16 0 8.686 7.314 16 16 16 8.914 0 16-7.086 16-16s-7.086-16-16-16zM18.058 29.258c-0.458 0-0.914 0-1.372 0.228v-5.942h4.8c-0.686 2.742-2.058 4.8-3.428 5.714zM10.514 23.542h4.8v5.942c-0.458 0-0.914 0-1.142-0.228-1.6-0.914-2.972-2.972-3.658-5.714zM2.742 16.686h5.486c0 1.828 0.228 3.886 0.686 5.486h-4.572c-1.142-1.6-1.6-3.428-1.6-5.486zM14.172 2.742c0.458 0 0.686 0 1.142-0.228v6.172h-4.8c0.686-2.742 2.058-5.028 3.658-5.942zM21.714 8.686h-5.028v-6.172c0.458 0 0.914 0 1.372 0.228 1.372 0.914 2.742 3.2 3.658 5.942zM21.942 10.058c0.458 1.6 0.686 3.428 0.686 5.258h-5.942v-5.258h5.258zM15.314 10.058v5.258h-5.942c0-1.828 0.228-3.658 0.686-5.258h5.258zM8 15.314h-5.258c0-1.828 0.686-3.658 1.372-5.258h4.572c-0.458 1.6-0.686 3.428-0.686 5.258zM9.372 16.686h5.942v5.486h-5.258c-0.458-1.6-0.686-3.658-0.686-5.486zM16.686 22.172v-5.486h5.942c0 1.828-0.228 3.886-0.686 5.486h-5.258zM24 16.686h5.258c0 2.058-0.686 3.886-1.372 5.486h-4.572c0.458-1.6 0.686-3.658 0.686-5.486zM24 15.314c0-1.828-0.228-3.658-0.686-5.258h4.572c0.914 1.6 1.372 3.428 1.372 5.258h-5.258zM27.2 8.686h-4.114c-0.686-2.058-1.6-3.886-2.514-5.258 2.742 0.914 5.028 2.972 6.628 5.258zM11.428 3.428c-0.914 1.372-1.828 3.2-2.286 5.258h-4.342c1.6-2.514 3.886-4.342 6.628-5.258zM4.8 23.542h4.342c0.458 2.058 1.372 3.886 2.514 5.258-2.972-1.142-5.258-2.972-6.858-5.258zM20.572 28.572c1.142-1.372 1.828-2.972 2.514-5.258h4.114c-1.6 2.514-3.886 4.342-6.628 5.258z"></path>
</svg>
