<?xml version="1.0" encoding="utf-8"?>
<!-- Generated by IcoMoon.io -->
<!DOCTYPE svg PUBLIC "-//W3C//DTD SVG 1.1//EN" "http://www.w3.org/Graphics/SVG/1.1/DTD/svg11.dtd">
<svg version="1.1" xmlns="http://www.w3.org/2000/svg" xmlns:xlink="http://www.w3.org/1999/xlink" width="32" height="32" viewBox="0 0 32 32">
<path d="M16 0c-8.914 0-16 7.086-16 16s7.086 16 16 16c8.914 0 16-7.086 16-16s-7.086-16-16-16zM16 29.714c-4.114 0-7.772-1.828-10.058-4.572 0-0.228 0.686-2.286 1.142-3.2s0.686-1.142 1.828-2.058c1.142-0.914-2.286-1.372-2.972-2.286-0.914-0.686-1.142-0.686-2.058-1.372-0.686-0.458-1.142 1.828-1.142 2.972-0.458-0.914-0.458-2.058-0.458-3.2 0-2.972 0.914-5.486 2.514-7.772-0.458 1.372-0.914 3.2 0.914 2.742 1.828-0.686 2.058-1.372 2.058-1.372l1.142-1.828c0 0 0.228 2.742 0.458 3.2s1.142 1.6 1.372 0c0.458-3.2 0.458-4.114 1.6-4.114s3.2-0.914 3.428 1.6c0.228 2.742-0.228 1.142-1.6 1.828s-1.828 2.972-0.458 3.2c1.372 0.228 4.114 1.372 4.114 1.372l1.372 1.6 0.458 1.828c0 0 0.228 2.058 0.228 2.058v1.828c0 0 0 3.428 1.372 2.742 1.372-0.914 4.8-6.172 4.114-8.228s-0.686-2.286 0.458-2.972c1.372-0.686 2.286-1.6 2.286-2.514 0-0.686 0-1.142 0-1.6 0.914 1.828 1.6 4.114 1.6 6.4 0 7.542-6.172 13.714-13.714 13.714z"></path>
</svg>
