<?xml version="1.0" encoding="utf-8"?>
<!-- Generated by IcoMoon.io -->
<!DOCTYPE svg PUBLIC "-//W3C//DTD SVG 1.1//EN" "http://www.w3.org/Graphics/SVG/1.1/DTD/svg11.dtd">
<svg version="1.1" xmlns="http://www.w3.org/2000/svg" xmlns:xlink="http://www.w3.org/1999/xlink" width="35" height="32" viewBox="0 0 35 32">
<path fill="#e5e5e5" d="M4.16 2.518h27.131v27.131h-27.131v-27.131z"></path>
<path fill="#e5e5e5" d="M5.788 4.146h6.511v4.16h-6.511v-4.16z"></path>
<path fill="#e5e5e5" d="M5.788 9.029h6.511v4.16h-6.511v-4.16z"></path>
<path fill="#e5e5e5" d="M5.788 13.732h6.511v4.16h-6.511v-4.16z"></path>
<path fill="#e5e5e5" d="M5.788 18.616h6.511v4.16h-6.511v-4.16z"></path>
<path fill="#e5e5e5" d="M5.788 23.499h6.511v4.16h-6.511v-4.16z"></path>
<path fill="#e5e5e5" d="M14.47 4.146h6.511v4.16h-6.511v-4.16z"></path>
<path fill="#e5e5e5" d="M14.47 9.029h6.511v4.16h-6.511v-4.16z"></path>
<path fill="#e5e5e5" d="M14.47 13.732h6.511v4.16h-6.511v-4.16z"></path>
<path fill="#e5e5e5" d="M14.47 18.616h6.511v4.16h-6.511v-4.16z"></path>
<path fill="#e5e5e5" d="M14.47 23.499h6.511v4.16h-6.511v-4.16z"></path>
<path fill="#e5e5e5" d="M23.151 4.146h6.511v4.16h-6.511v-4.16z"></path>
<path fill="#e5e5e5" d="M23.151 9.029h6.511v4.16h-6.511v-4.16z"></path>
<path fill="#e5e5e5" d="M23.151 13.732h6.511v4.16h-6.511v-4.16z"></path>
<path fill="#e5e5e5" d="M23.151 18.616h6.511v4.16h-6.511v-4.16z"></path>
<path fill="#e5e5e5" d="M23.151 23.499h6.511v4.16h-6.511v-4.16z"></path>
</svg>
