<?xml version="1.0" encoding="utf-8"?>
<!-- Generated by IcoMoon.io -->
<!DOCTYPE svg PUBLIC "-//W3C//DTD SVG 1.1//EN" "http://www.w3.org/Graphics/SVG/1.1/DTD/svg11.dtd">
<svg version="1.1" xmlns="http://www.w3.org/2000/svg" xmlns:xlink="http://www.w3.org/1999/xlink" width="32" height="32" viewBox="0 0 32 32">
<path d="M13.942 0h-13.942v9.6h13.942v-9.6zM11.658 7.314h-9.372v-5.028h9.372v5.028z"></path>
<path d="M32 0h-13.942v9.6h13.942v-9.6zM29.714 7.314h-9.372v-5.028h9.372v5.028z"></path>
<path d="M0 14.858h14.172v2.286h-14.172v-2.286z"></path>
<path d="M0 22.4h14.172v2.286h-14.172v-2.286z"></path>
<path d="M0 29.714h14.172v2.286h-14.172v-2.286z"></path>
<path d="M17.828 14.858h14.172v2.286h-14.172v-2.286z"></path>
<path d="M17.828 22.4h14.172v2.286h-14.172v-2.286z"></path>
<path d="M17.828 29.714h14.172v2.286h-14.172v-2.286z"></path>
</svg>
