<?xml version="1.0" encoding="utf-8"?>
<!-- Generated by IcoMoon.io -->
<!DOCTYPE svg PUBLIC "-//W3C//DTD SVG 1.1//EN" "http://www.w3.org/Graphics/SVG/1.1/DTD/svg11.dtd">
<svg version="1.1" xmlns="http://www.w3.org/2000/svg" xmlns:xlink="http://www.w3.org/1999/xlink" width="32" height="32" viewBox="0 0 32 32">
<path d="M16 0c-8.914 0-16 7.086-16 16s7.086 16 16 16c8.914 0 16-7.086 16-16s-7.086-16-16-16zM16 3.2c7.086 0 12.8 5.714 12.8 12.8s-5.714 12.8-12.8 12.8-12.8-5.714-12.8-12.8 5.714-12.8 12.8-12.8z"></path>
<path d="M17.828 23.542c0 1.142-0.914 2.058-2.286 2.058-1.142 0-2.058-0.914-2.058-2.058s0.914-2.058 2.058-2.058c1.372-0.228 2.286 0.686 2.286 2.058zM21.942 10.742c0 4.342-4.8 3.886-4.8 7.086v0.914h-2.972v-1.142c0-4.572 4.342-4.114 4.342-6.628 0-1.142-0.914-1.828-2.286-1.828-1.142 0-2.286 0.458-3.428 1.828l-2.058-1.828c1.6-1.828 3.428-2.742 5.942-2.742 3.428 0 5.258 2.058 5.258 4.342z"></path>
</svg>
