<?xml version="1.0" encoding="utf-8"?>
<!-- Generated by IcoMoon.io -->
<!DOCTYPE svg PUBLIC "-//W3C//DTD SVG 1.1//EN" "http://www.w3.org/Graphics/SVG/1.1/DTD/svg11.dtd">
<svg version="1.1" xmlns="http://www.w3.org/2000/svg" xmlns:xlink="http://www.w3.org/1999/xlink" width="32" height="32" viewBox="0 0 32 32">
<path d="M20.572 15.086h-3.2v-6.628c0-0.914-0.686-1.828-1.372-1.828-0.914 0-1.6 0.914-1.6 1.828v8.228c0 0.914 0.458 1.6 1.372 1.6h4.8c0.914 0 1.6-0.686 1.6-1.6s-0.686-1.6-1.6-1.6z"></path>
<path d="M16 0c-8.914 0-16 7.086-16 16s7.086 16 16 16c8.914 0 16-7.086 16-16s-7.086-16-16-16zM16 3.2c7.086 0 12.8 5.714 12.8 12.8s-5.714 12.8-12.8 12.8-12.8-5.714-12.8-12.8c0-7.086 5.714-12.8 12.8-12.8z"></path>
</svg>
