<?xml version="1.0" encoding="utf-8"?>
<!-- Generated by IcoMoon.io -->
<!DOCTYPE svg PUBLIC "-//W3C//DTD SVG 1.1//EN" "http://www.w3.org/Graphics/SVG/1.1/DTD/svg11.dtd">
<svg version="1.1" xmlns="http://www.w3.org/2000/svg" xmlns:xlink="http://www.w3.org/1999/xlink" width="41" height="32" viewBox="0 0 41 32">
<path fill="#fff" d="M23.285 10.456h-5.155c-0.173 0-0.314 0.129-0.314 0.289v10.469c0 0.16 0.14 0.291 0.314 0.291h5.155c0.171 0 0.31-0.131 0.31-0.291v-10.469c0-0.159-0.139-0.289-0.31-0.289zM23.363 21.213c0 0.032-0.036 0.059-0.078 0.059h-5.155c-0.049 0-0.082-0.030-0.082-0.059v-10.469c0-0.027 0.033-0.057 0.082-0.057h5.155c0.042 0 0.078 0.026 0.078 0.057v10.469z"></path>
<path fill="#fff" d="M19.668 13.064l2.334 4.599-0.164 0.083-2.334-4.599 0.164-0.083z"></path>
<path fill="#fff" d="M21.623 15.605l-1.237-2.288-0.162 0.087 1.237 2.288z"></path>
<path fill="#fff" d="M18.477 20.106h4.458v-8.253h-4.458v8.253zM18.709 12.085h3.995v7.79h-3.995v-7.79z"></path>
<path fill="#fff" d="M20.441 20.576h0.53v0.232h-0.53v-0.232z"></path>
<path fill="#fff" d="M20.498 11.123h0.415v0.232h-0.415v-0.232z"></path>
</svg>
