<?xml version="1.0" encoding="utf-8"?>
<!-- Generated by IcoMoon.io -->
<!DOCTYPE svg PUBLIC "-//W3C//DTD SVG 1.1//EN" "http://www.w3.org/Graphics/SVG/1.1/DTD/svg11.dtd">
<svg version="1.1" xmlns="http://www.w3.org/2000/svg" xmlns:xlink="http://www.w3.org/1999/xlink" width="41" height="32" viewBox="0 0 41 32">
<path d="M40.727 5.090c0-2.809-2.279-5.090-5.090-5.090h-30.546c-2.809 0-5.090 2.281-5.090 5.090v21.817c0 2.814 2.281 5.090 5.090 5.090h30.546c2.814 0 5.090-2.279 5.090-5.090v-21.817zM37.817 14.142l-7.065 6.325-9.493-8.823-17.438 14.539h-0.914v-23.273h34.91v11.232z"></path>
<path d="M34.985 7.326c0 2.421-1.961 4.382-4.382 4.382s-4.382-1.961-4.382-4.382c0-2.421 1.961-4.382 4.382-4.382s4.382 1.961 4.382 4.382z"></path>
</svg>
