<?xml version="1.0" encoding="utf-8"?>
<!-- Generated by IcoMoon.io -->
<!DOCTYPE svg PUBLIC "-//W3C//DTD SVG 1.1//EN" "http://www.w3.org/Graphics/SVG/1.1/DTD/svg11.dtd">
<svg version="1.1" xmlns="http://www.w3.org/2000/svg" xmlns:xlink="http://www.w3.org/1999/xlink" width="14" height="32" viewBox="0 0 14 32">
<path d="M8.96 1.066c0.854-0.64 1.706-1.066 2.774-1.066 0.854 0 1.706 0.214 2.134 0.64 0.64 0.426 0.854 1.066 0.854 1.706 0 0.854-0.426 1.706-1.066 2.346-0.854 0.854-1.706 1.28-2.774 1.28-0.854 0-1.494-0.214-2.134-0.64-0.426-0.64-0.854-1.28-0.854-1.92 0-0.854 0.426-1.706 1.066-2.346zM14.72 26.88c-2.774 2.134-4.694 3.414-5.974 4.054-1.494 0.854-2.774 1.066-3.626 1.066s-1.706-0.214-2.346-0.854c-0.64-0.426-0.854-1.066-0.854-1.92 0-2.134 1.494-7.040 4.48-14.934 0-0.214 0-0.214 0-0.426-0.214 0-0.214 0-0.426 0.214-0.214 0-0.854 0.64-2.986 2.346-0.426 0.214-0.854 0.214-1.28 0l-1.28-0.854c-0.214 0-0.426-0.214-0.426-0.426s0-0.426 0.214-0.64c2.134-1.92 3.84-3.2 5.546-3.84 1.706-0.854 3.2-1.28 4.694-1.28 0.854 0 1.494 0.214 2.134 0.426 0.426 0.426 0.64 0.854 0.64 1.494 0 0.426-0.214 1.494-1.92 6.186-2.346 6.826-2.986 9.174-2.986 10.026 0.426-0.214 1.494-0.854 3.84-2.56 0.426-0.214 0.854-0.214 1.28 0l1.066 0.854c0.426 0.214 0.426 0.426 0.426 0.64s-0.214 0.426-0.214 0.426z"></path>
</svg>
