<?xml version="1.0" encoding="utf-8"?>
<!-- Generated by IcoMoon.io -->
<!DOCTYPE svg PUBLIC "-//W3C//DTD SVG 1.1//EN" "http://www.w3.org/Graphics/SVG/1.1/DTD/svg11.dtd">
<svg version="1.1" xmlns="http://www.w3.org/2000/svg" xmlns:xlink="http://www.w3.org/1999/xlink" width="32" height="32" viewBox="0 0 32 32">
<path d="M31 5.2c0-1.2-0.8-2.2-1.8-2.2s-1.8 1-1.8 2.2v21.6c0 1.2 0.8 2.2 1.8 2.2s1.8-1 1.8-2.2v-21.6z"></path>
<path d="M22.2 25.2c-1.2 0-2 0.8-2 1.8s0.8 1.8 2 1.8h6.8c1 0 2-0.8 2-1.8s-1-1.8-2-1.8h-6.8z"></path>
<path d="M3 3.2c-1 0-2 0.8-2 1.8s1 1.8 2 1.8h26c1 0 2-0.8 2-1.8s-1-1.8-2-1.8h-26z"></path>
<path d="M13 9.8l7 7-7 7v-3.6l3.4-3.4-3.4-3.6z"></path>
</svg>
