<?xml version="1.0" encoding="utf-8"?>
<!-- Generated by IcoMoon.io -->
<!DOCTYPE svg PUBLIC "-//W3C//DTD SVG 1.1//EN" "http://www.w3.org/Graphics/SVG/1.1/DTD/svg11.dtd">
<svg version="1.1" xmlns="http://www.w3.org/2000/svg" xmlns:xlink="http://www.w3.org/1999/xlink" width="32" height="32" viewBox="0 0 32 32">
<path d="M1.192 6.36c0-1.102 0.84-2 1.868-2 1.024 0 1.866 0.898 1.866 2v20.372c0 1.102-0.842 2-1.866 2-1.028 0-1.868-0.898-1.868-2v-20.372z"></path>
<path d="M10 25c1.102 0 2 0.84 2 1.868 0 1.024-0.898 1.864-2 1.864h-6.808c-1.1 0-2-0.84-2-1.864 0-1.028 0.9-1.868 2-1.868h6.808z"></path>
<path d="M29.192 2.988c1.1 0 2 0.84 2 1.864 0 1.028-0.9 1.868-2 1.868h-26c-1.1 0-2-0.84-2-1.868 0-1.024 0.9-1.864 2-1.864h26z"></path>
<path d="M19.26 9.656l-7 7.002 7 6.998v-3.578l-3.5-3.426 3.5-3.624z"></path>
</svg>
