<?xml version="1.0" encoding="utf-8"?>
<!-- Generated by IcoMoon.io -->
<!DOCTYPE svg PUBLIC "-//W3C//DTD SVG 1.1//EN" "http://www.w3.org/Graphics/SVG/1.1/DTD/svg11.dtd">
<svg version="1.1" xmlns="http://www.w3.org/2000/svg" xmlns:xlink="http://www.w3.org/1999/xlink" width="41" height="32" viewBox="0 0 41 32">
<path fill="#fff" d="M23.427 10.153h-5.439c-0.183 0-0.331 0.137-0.331 0.305v11.046c0 0.169 0.148 0.307 0.331 0.307h5.439c0.18 0 0.327-0.138 0.327-0.307v-11.046c0-0.168-0.146-0.305-0.327-0.305zM23.51 21.504c0 0.034-0.038 0.062-0.082 0.062h-5.439c-0.052 0-0.086-0.031-0.086-0.062v-11.046c0-0.029 0.034-0.060 0.086-0.060h5.439c0.044 0 0.082 0.028 0.082 0.060v11.046z"></path>
<path fill="#fff" d="M18.354 20.336h4.704v-8.708h-4.704v8.708zM18.599 11.872h4.215v8.219h-4.215v-8.219z"></path>
<path fill="#fff" d="M20.427 20.831h0.559v0.245h-0.559v-0.245z"></path>
<path fill="#fff" d="M21.284 16.466h-0.080c-0.027 0-0.050-0.018-0.057-0.045-0.004-0.018-0.009-0.036-0.014-0.054-0.008-0.026 0.003-0.053 0.027-0.067l0.069-0.040c0.047-0.027 0.063-0.087 0.036-0.134l-0.078-0.136c-0.026-0.045-0.089-0.062-0.134-0.036l-0.069 0.040c-0.023 0.013-0.053 0.009-0.071-0.010-0.013-0.014-0.026-0.027-0.040-0.040-0.020-0.019-0.024-0.048-0.010-0.071l0.040-0.069c0.027-0.047 0.011-0.107-0.036-0.134l-0.136-0.078c-0.045-0.026-0.108-0.009-0.134 0.036l-0.040 0.069c-0.013 0.023-0.042 0.034-0.067 0.027-0.018-0.005-0.036-0.010-0.054-0.014-0.026-0.006-0.045-0.029-0.045-0.057v-0.080c0-0.054-0.044-0.098-0.098-0.098h-0.157c-0.054 0-0.098 0.044-0.098 0.098v0.080c0 0.027-0.018 0.050-0.045 0.057-0.018 0.004-0.036 0.009-0.054 0.014-0.025 0.008-0.054-0.004-0.067-0.027l-0.040-0.069c-0.026-0.045-0.088-0.062-0.134-0.036l-0.136 0.078c-0.047 0.027-0.063 0.087-0.036 0.134l0.040 0.069c0.014 0.024 0.009 0.053-0.010 0.071-0.014 0.013-0.027 0.026-0.040 0.040-0.018 0.019-0.049 0.024-0.071 0.010l-0.069-0.040c-0.045-0.026-0.108-0.009-0.134 0.036l-0.078 0.136c-0.027 0.047-0.011 0.107 0.036 0.134l0.069 0.040c0.023 0.014 0.034 0.041 0.027 0.067-0.005 0.018-0.010 0.036-0.014 0.054-0.006 0.026-0.029 0.045-0.057 0.045h-0.080c-0.054 0-0.098 0.044-0.098 0.098v0.157c0 0.054 0.044 0.098 0.098 0.098h0.080c0.027 0 0.050 0.018 0.057 0.045 0.004 0.018 0.009 0.036 0.014 0.054 0.008 0.026-0.003 0.053-0.027 0.067l-0.069 0.040c-0.047 0.027-0.063 0.087-0.036 0.134l0.078 0.136c0.026 0.045 0.088 0.062 0.134 0.036l0.069-0.040c0.023-0.013 0.053-0.009 0.071 0.010 0.013 0.014 0.026 0.027 0.040 0.040 0.020 0.018 0.024 0.048 0.010 0.071l-0.040 0.069c-0.027 0.047-0.011 0.107 0.036 0.134l0.136 0.078c0.045 0.026 0.108 0.009 0.134-0.036l0.040-0.069c0.013-0.023 0.042-0.034 0.067-0.027 0.018 0.005 0.036 0.010 0.054 0.014 0.026 0.006 0.045 0.029 0.045 0.057v0.080c0 0.054 0.044 0.098 0.098 0.098h0.157c0.054 0 0.098-0.044 0.098-0.098v-0.080c0-0.027 0.018-0.050 0.045-0.057 0.018-0.004 0.036-0.009 0.054-0.014 0.025-0.008 0.054 0.004 0.067 0.027l0.040 0.069c0.026 0.045 0.088 0.062 0.134 0.036l0.136-0.078c0.047-0.027 0.063-0.087 0.036-0.134l-0.040-0.070c-0.014-0.023-0.009-0.053 0.010-0.071 0.014-0.013 0.027-0.026 0.040-0.040 0.018-0.019 0.049-0.024 0.071-0.010l0.069 0.040c0.045 0.026 0.108 0.009 0.134-0.036l0.078-0.136c0.027-0.047 0.011-0.107-0.036-0.134l-0.069-0.040c-0.023-0.014-0.034-0.041-0.027-0.067 0.005-0.018 0.010-0.036 0.014-0.054 0.006-0.026 0.029-0.045 0.057-0.045h0.080c0.054 0 0.098-0.044 0.098-0.098v-0.157c0-0.054-0.044-0.098-0.098-0.098zM21.342 16.721c0 0.032-0.026 0.059-0.059 0.059h-0.080c-0.046 0-0.085 0.031-0.095 0.075-0.004 0.018-0.009 0.035-0.014 0.052-0.013 0.043 0.005 0.090 0.045 0.112l0.069 0.040c0.028 0.016 0.038 0.052 0.021 0.080l-0.078 0.136c-0.016 0.027-0.053 0.037-0.080 0.022l-0.069-0.040c-0.038-0.022-0.090-0.014-0.12 0.018-0.012 0.013-0.025 0.026-0.038 0.038-0.033 0.031-0.040 0.080-0.018 0.12l0.040 0.069c0.016 0.028 0.006 0.064-0.021 0.080l-0.136 0.078c-0.027 0.016-0.064 0.005-0.080-0.021l-0.040-0.069c-0.022-0.038-0.070-0.057-0.112-0.045-0.017 0.005-0.034 0.010-0.052 0.014-0.044 0.010-0.075 0.049-0.075 0.095v0.080c0 0.032-0.026 0.059-0.059 0.059h-0.157c-0.032 0-0.059-0.026-0.059-0.059v-0.080c0-0.046-0.031-0.085-0.075-0.095-0.017-0.004-0.035-0.009-0.052-0.014-0.009-0.003-0.018-0.004-0.028-0.004-0.035 0-0.067 0.019-0.084 0.049l-0.040 0.069c-0.016 0.027-0.053 0.037-0.080 0.021l-0.136-0.078c-0.028-0.016-0.038-0.052-0.021-0.080l0.040-0.069c0.023-0.039 0.015-0.089-0.018-0.12-0.013-0.012-0.026-0.025-0.038-0.038-0.030-0.032-0.082-0.039-0.12-0.018l-0.069 0.040c-0.027 0.016-0.064 0.005-0.080-0.022l-0.078-0.136c-0.016-0.028-0.007-0.064 0.021-0.080l0.069-0.040c0.039-0.023 0.058-0.069 0.045-0.112-0.005-0.017-0.010-0.034-0.014-0.052-0.010-0.044-0.049-0.075-0.095-0.075h-0.080c-0.032 0-0.059-0.026-0.059-0.059v-0.157c0-0.032 0.026-0.059 0.059-0.059h0.080c0.046 0 0.085-0.031 0.095-0.075 0.004-0.018 0.009-0.035 0.014-0.052 0.013-0.044-0.005-0.090-0.045-0.112l-0.069-0.040c-0.028-0.016-0.038-0.052-0.021-0.080l0.078-0.136c0.016-0.027 0.053-0.037 0.080-0.021l0.069 0.040c0.038 0.022 0.090 0.014 0.12-0.018 0.012-0.013 0.025-0.026 0.038-0.038 0.033-0.031 0.040-0.080 0.018-0.12l-0.040-0.069c-0.016-0.028-0.007-0.064 0.021-0.080l0.136-0.078c0.027-0.016 0.065-0.005 0.080 0.021l0.040 0.069c0.022 0.038 0.070 0.057 0.112 0.045 0.017-0.005 0.034-0.010 0.052-0.014 0.044-0.010 0.075-0.049 0.075-0.095v-0.080c0-0.032 0.026-0.059 0.059-0.059h0.157c0.032 0 0.059 0.026 0.059 0.059v0.080c0 0.046 0.031 0.085 0.075 0.095 0.017 0.004 0.035 0.009 0.052 0.014 0.042 0.013 0.090-0.006 0.112-0.045l0.040-0.069c0.016-0.027 0.053-0.037 0.080-0.021l0.136 0.078c0.028 0.016 0.038 0.052 0.021 0.080l-0.040 0.069c-0.023 0.039-0.016 0.089 0.018 0.12 0.013 0.012 0.026 0.025 0.038 0.038 0.030 0.032 0.082 0.040 0.12 0.018l0.069-0.040c0.027-0.016 0.064-0.005 0.080 0.021l0.078 0.136c0.016 0.028 0.007 0.064-0.021 0.080l-0.069 0.040c-0.039 0.023-0.058 0.069-0.045 0.112 0.005 0.017 0.010 0.034 0.014 0.052 0.010 0.044 0.049 0.075 0.095 0.075h0.080c0.032 0 0.059 0.026 0.059 0.059v0.157z"></path>
<path fill="#fff" d="M20.214 16.147c-0.273 0-0.495 0.222-0.495 0.495s0.222 0.495 0.495 0.495 0.495-0.222 0.495-0.495c0-0.273-0.222-0.495-0.495-0.495zM20.214 17.099c-0.251 0-0.456-0.204-0.456-0.456s0.204-0.456 0.456-0.456 0.456 0.204 0.456 0.456c0 0.251-0.204 0.456-0.456 0.456z"></path>
<path fill="#fff" d="M22.314 15.059h-0.054c-0.018 0-0.034-0.012-0.038-0.030-0.003-0.012-0.006-0.025-0.010-0.037-0.005-0.017 0.002-0.036 0.018-0.045l0.047-0.027c0.032-0.018 0.042-0.059 0.024-0.090l-0.053-0.092c-0.018-0.030-0.060-0.042-0.090-0.024l-0.047 0.027c-0.015 0.009-0.036 0.006-0.048-0.007-0.009-0.009-0.018-0.018-0.027-0.027-0.013-0.013-0.016-0.032-0.007-0.048l0.027-0.047c0.018-0.032 0.007-0.072-0.024-0.090l-0.092-0.053c-0.031-0.018-0.073-0.006-0.090 0.024l-0.027 0.047c-0.009 0.015-0.028 0.023-0.045 0.018-0.012-0.004-0.024-0.007-0.037-0.010-0.018-0.004-0.030-0.020-0.030-0.038v-0.054c0-0.036-0.030-0.066-0.066-0.066h-0.106c-0.036 0-0.066 0.030-0.066 0.066v0.054c0 0.018-0.012 0.034-0.030 0.038-0.012 0.003-0.025 0.006-0.037 0.010-0.017 0.005-0.036-0.003-0.045-0.018l-0.027-0.047c-0.018-0.030-0.060-0.042-0.090-0.024l-0.092 0.053c-0.032 0.018-0.042 0.059-0.024 0.090l0.027 0.047c0.009 0.016 0.006 0.036-0.007 0.048-0.009 0.009-0.018 0.018-0.027 0.027-0.012 0.013-0.033 0.016-0.048 0.007l-0.047-0.027c-0.031-0.018-0.073-0.006-0.090 0.024l-0.053 0.092c-0.018 0.032-0.007 0.072 0.024 0.090l0.047 0.027c0.016 0.009 0.023 0.028 0.018 0.045-0.004 0.012-0.007 0.024-0.010 0.037-0.004 0.018-0.020 0.030-0.038 0.030h-0.054c-0.036 0-0.066 0.030-0.066 0.066v0.106c0 0.036 0.030 0.066 0.066 0.066h0.054c0.018 0 0.034 0.012 0.038 0.030 0.003 0.012 0.006 0.025 0.010 0.037 0.005 0.017-0.002 0.036-0.018 0.045l-0.047 0.027c-0.032 0.018-0.042 0.059-0.024 0.090l0.053 0.092c0.018 0.030 0.060 0.042 0.090 0.024l0.047-0.027c0.015-0.009 0.036-0.006 0.048 0.007 0.009 0.009 0.017 0.018 0.027 0.027 0.013 0.012 0.016 0.032 0.007 0.048l-0.027 0.047c-0.018 0.032-0.007 0.072 0.024 0.090l0.092 0.053c0.031 0.018 0.073 0.006 0.090-0.024l0.027-0.047c0.009-0.015 0.028-0.023 0.045-0.018 0.012 0.004 0.024 0.007 0.037 0.010 0.018 0.004 0.030 0.020 0.030 0.038v0.054c0 0.036 0.030 0.066 0.066 0.066h0.106c0.036 0 0.066-0.030 0.066-0.066v-0.054c0-0.018 0.012-0.034 0.030-0.038 0.012-0.003 0.025-0.006 0.037-0.010 0.017-0.005 0.036 0.003 0.045 0.018l0.027 0.047c0.018 0.030 0.060 0.042 0.090 0.024l0.092-0.053c0.032-0.018 0.042-0.059 0.024-0.090l-0.027-0.047c-0.009-0.016-0.006-0.036 0.007-0.048 0.009-0.009 0.018-0.018 0.027-0.027 0.012-0.013 0.033-0.016 0.048-0.007l0.047 0.027c0.031 0.018 0.073 0.006 0.090-0.024l0.053-0.092c0.018-0.032 0.007-0.072-0.024-0.090l-0.047-0.027c-0.016-0.009-0.023-0.028-0.018-0.045 0.004-0.012 0.007-0.024 0.010-0.037 0.004-0.018 0.020-0.030 0.038-0.030h0.054c0.036 0 0.066-0.030 0.066-0.066v-0.106c0-0.037-0.030-0.066-0.066-0.066zM22.353 15.231c0 0.022-0.018 0.040-0.040 0.040h-0.054c-0.031 0-0.057 0.021-0.064 0.051-0.003 0.012-0.006 0.023-0.009 0.035-0.009 0.029 0.004 0.060 0.030 0.076l0.047 0.027c0.019 0.011 0.025 0.035 0.014 0.054l-0.053 0.092c-0.010 0.018-0.036 0.025-0.054 0.014l-0.047-0.027c-0.026-0.015-0.061-0.010-0.081 0.012-0.008 0.009-0.017 0.017-0.026 0.026-0.022 0.021-0.027 0.054-0.012 0.081l0.027 0.047c0.011 0.019 0.004 0.043-0.014 0.054l-0.092 0.053c-0.018 0.011-0.044 0.004-0.054-0.014l-0.027-0.047c-0.015-0.026-0.047-0.039-0.076-0.030-0.012 0.003-0.023 0.007-0.035 0.009-0.030 0.007-0.051 0.033-0.051 0.064v0.054c0 0.022-0.018 0.040-0.040 0.040h-0.106c-0.022 0-0.040-0.018-0.040-0.040v-0.054c0-0.031-0.021-0.057-0.051-0.064-0.012-0.003-0.023-0.006-0.035-0.009-0.006-0.002-0.012-0.003-0.019-0.003-0.023 0-0.045 0.013-0.057 0.033l-0.027 0.047c-0.010 0.018-0.036 0.025-0.054 0.014l-0.092-0.053c-0.019-0.011-0.025-0.035-0.014-0.054l0.027-0.047c0.015-0.027 0.010-0.060-0.012-0.081-0.009-0.008-0.017-0.017-0.026-0.026-0.020-0.021-0.055-0.027-0.081-0.012l-0.047 0.027c-0.018 0.011-0.044 0.004-0.054-0.014l-0.053-0.092c-0.011-0.019-0.004-0.043 0.014-0.054l0.047-0.027c0.027-0.015 0.039-0.047 0.030-0.076-0.003-0.011-0.007-0.023-0.009-0.035-0.007-0.030-0.033-0.051-0.064-0.051h-0.054c-0.022 0-0.040-0.018-0.040-0.040v-0.106c0-0.022 0.018-0.039 0.040-0.039h0.054c0.031 0 0.057-0.021 0.064-0.051 0.003-0.012 0.006-0.023 0.009-0.035 0.009-0.029-0.004-0.060-0.030-0.076l-0.047-0.027c-0.019-0.011-0.025-0.035-0.014-0.054l0.053-0.092c0.011-0.018 0.036-0.025 0.054-0.014l0.047 0.027c0.026 0.015 0.061 0.010 0.081-0.012 0.008-0.009 0.017-0.017 0.026-0.026 0.022-0.021 0.027-0.054 0.012-0.081l-0.027-0.047c-0.011-0.019-0.004-0.043 0.014-0.054l0.092-0.053c0.018-0.011 0.044-0.004 0.054 0.014l0.027 0.047c0.015 0.026 0.047 0.039 0.076 0.030 0.012-0.003 0.023-0.007 0.035-0.009 0.030-0.007 0.051-0.033 0.051-0.064v-0.054c0-0.022 0.018-0.040 0.040-0.040h0.106c0.022 0 0.040 0.018 0.040 0.040v0.054c0 0.031 0.021 0.057 0.051 0.064 0.012 0.003 0.023 0.006 0.035 0.009 0.029 0.009 0.061-0.004 0.076-0.030l0.027-0.047c0.010-0.018 0.036-0.025 0.054-0.014l0.092 0.053c0.019 0.011 0.025 0.035 0.014 0.054l-0.027 0.047c-0.015 0.027-0.010 0.060 0.012 0.081 0.009 0.008 0.017 0.017 0.026 0.026 0.020 0.022 0.055 0.027 0.081 0.012l0.047-0.027c0.018-0.011 0.044-0.004 0.054 0.014l0.053 0.092c0.011 0.019 0.004 0.043-0.014 0.054l-0.047 0.027c-0.027 0.015-0.039 0.047-0.030 0.076 0.003 0.011 0.007 0.023 0.009 0.035 0.007 0.030 0.033 0.051 0.064 0.051h0.054c0.022 0 0.040 0.018 0.040 0.039v0.106z"></path>
<path fill="#fff" d="M21.592 14.844c-0.184 0-0.334 0.15-0.334 0.334s0.15 0.334 0.334 0.334c0.184 0 0.334-0.15 0.334-0.334s-0.15-0.334-0.334-0.334zM21.592 15.486c-0.17 0-0.308-0.138-0.308-0.308s0.138-0.308 0.308-0.308 0.308 0.138 0.308 0.308-0.138 0.308-0.308 0.308z"></path>
</svg>
