<?xml version="1.0" encoding="utf-8"?>
<!-- Generated by IcoMoon.io -->
<!DOCTYPE svg PUBLIC "-//W3C//DTD SVG 1.1//EN" "http://www.w3.org/Graphics/SVG/1.1/DTD/svg11.dtd">
<svg version="1.1" xmlns="http://www.w3.org/2000/svg" xmlns:xlink="http://www.w3.org/1999/xlink" width="32" height="32" viewBox="0 0 32 32">
<path d="M7.562 7.688c4.65-4.648 12.22-4.648 16.87 0 4.656 4.656 4.652 12.222 0 16.87-4.648 4.652-12.216 4.656-16.872 0-4.648-4.648-4.646-12.22 0.002-16.87zM5.056 5.182c-6.040 6.042-6.040 15.844 0 21.884 6.044 6.042 15.844 6.040 21.884 0 6.038-6.040 6.042-15.838 0-21.884-6.040-6.040-15.842-6.040-21.884 0z"></path>
<path d="M2.488 14.426h27.020v3.394h-27.020v-3.394z"></path>
</svg>
