<?xml version="1.0" encoding="utf-8"?>
<!-- Generated by IcoMoon.io -->
<!DOCTYPE svg PUBLIC "-//W3C//DTD SVG 1.1//EN" "http://www.w3.org/Graphics/SVG/1.1/DTD/svg11.dtd">
<svg version="1.1" xmlns="http://www.w3.org/2000/svg" xmlns:xlink="http://www.w3.org/1999/xlink" width="32" height="32" viewBox="0 0 32 32">
<path d="M2.384 26.008v-3.34zM2.384 22.582v3.348c0 1.504 1.22 2.726 2.724 2.726h23.164c1.506 0 2.726-1.222 2.726-2.726v-19.86c0-1.502-1.22-2.724-2.726-2.724v0h-23.162c-1.504 0-2.724 1.222-2.724 2.724v2.158c-0.774 0.076-1.386 0.718-1.386 1.51s0.612 1.438 1.384 1.512v1.734c-0.772 0.074-1.384 0.72-1.384 1.512s0.612 1.438 1.384 1.512v1.844c-0.772 0.078-1.384 0.722-1.384 1.512 0 0.792 0.612 1.442 1.384 1.512v1.738zM2.384 20.098c-0.342-0.070-0.604-0.376-0.604-0.734s0.262-0.664 0.604-0.732v1.466zM2.384 15.226c-0.342-0.066-0.604-0.366-0.604-0.73s0.262-0.664 0.606-0.734v1.464zM2.384 10.472c-0.342-0.070-0.604-0.37-0.604-0.734 0-0.362 0.262-0.666 0.606-0.736v1.47zM3.942 20.894h1.19c0.17 0.46 0.614 0.79 1.128 0.79 0.67 0 1.21-0.54 1.21-1.208s-0.54-1.21-1.21-1.21c-0.536 0-0.99 0.36-1.142 0.848h-1.176v-4.094h1.158c0.14 0.516 0.604 0.89 1.16 0.89 0.67 0 1.21-0.54 1.21-1.208s-0.54-1.206-1.21-1.206c-0.502 0-0.932 0.308-1.114 0.746h-1.204v-3.976h1.128c0.068 0.602 0.572 1.070 1.19 1.070 0.67 0 1.21-0.542 1.21-1.21s-0.54-1.212-1.21-1.212c-0.43 0-0.804 0.23-1.020 0.57h-1.298v-4.414c0-0.642 0.524-1.168 1.168-1.168h23.164c0.646 0 1.17 0.526 1.17 1.168v19.86c0 0.644-0.524 1.168-1.17 1.168h-23.164c-0.644 0-1.168-0.524-1.168-1.168v-3.34zM26.498 10.356c0 0.324-0.262 0.582-0.584 0.582h-15.326c-0.322 0-0.582-0.258-0.582-0.582s0.26-0.586 0.582-0.586h15.326c0.322 0 0.584 0.262 0.584 0.586v0zM26.746 15.094c0 0.324-0.26 0.586-0.584 0.586h-15.622c-0.324 0-0.586-0.262-0.586-0.586 0-0.32 0.262-0.582 0.586-0.582h15.624c0.322 0 0.582 0.262 0.582 0.582v0zM26.88 19.902c0 0.32-0.26 0.586-0.582 0.586h-15.758c-0.324 0-0.586-0.266-0.586-0.586 0-0.324 0.262-0.586 0.586-0.586h15.76c0.322 0 0.58 0.262 0.58 0.586v0z"></path>
</svg>
