<?xml version="1.0" encoding="utf-8"?>
<!-- Generated by IcoMoon.io -->
<!DOCTYPE svg PUBLIC "-//W3C//DTD SVG 1.1//EN" "http://www.w3.org/Graphics/SVG/1.1/DTD/svg11.dtd">
<svg version="1.1" xmlns="http://www.w3.org/2000/svg" xmlns:xlink="http://www.w3.org/1999/xlink" width="32" height="32" viewBox="0 0 32 32">
<path d="M16 0c-4.272 0-8.293 1.664-11.312 4.688s-4.688 7.040-4.688 11.312c0 4.274 1.664 8.293 4.688 11.312s7.040 4.688 11.312 4.688 8.29-1.664 11.312-4.688c3.024-3.022 4.688-7.038 4.688-11.312s-1.664-8.293-4.688-11.312c-3.022-3.024-7.038-4.688-11.312-4.688zM24.487 7.513c1.829 1.831 2.944 4.11 3.342 6.485h-23.655c0.4-2.377 1.513-4.656 3.344-6.485 4.679-4.677 12.29-4.677 16.971 0zM7.513 24.487c-1.829-1.831-2.942-4.11-3.344-6.485h23.655c-0.4 2.377-1.513 4.656-3.342 6.485-4.679 4.677-12.29 4.677-16.971 0z"></path>
</svg>
