<?xml version="1.0" encoding="utf-8"?>
<!-- Generated by IcoMoon.io -->
<!DOCTYPE svg PUBLIC "-//W3C//DTD SVG 1.1//EN" "http://www.w3.org/Graphics/SVG/1.1/DTD/svg11.dtd">
<svg version="1.1" xmlns="http://www.w3.org/2000/svg" xmlns:xlink="http://www.w3.org/1999/xlink" width="32" height="32" viewBox="0 0 32 32">
<path d="M30.496 27.514v0zM29.418 26.466c0 0 0.692 0.64 0.976 0.934 0.050 0.058 0.102 0.114 0.102 0.114l-1.078-1.048zM15.918 0.78c-5.278 0-9.458 4.836-9.192 10.308 0.236 4.078 1.094 7.868 3.98 10.782-1.98 0.93-3.914 1.918-5.844 3.026-1.024 0.642-3.914 1.924-3.914 3.44 0 2.096 0.286 2.446 2.434 2.446h23.552c1.462 0 3.292-0.060 3.746-0.7 0.504-0.754 0.22-2.094-0.184-2.566 0 0-0.050 0-0.102-0.114-2.672-2.566-6.078-4.020-9.374-5.532 2.502-2.504 3.41-5.828 3.814-9.324 0.336-2.448 0.336-4.25-0.808-6.524-1.288-2.622-3.796-4.658-6.682-5.128-0.454-0.058-0.962-0.114-1.426-0.114zM15.918 3.342c0.354 0 0.684 0.058 1.024 0.118 1.98 0.29 3.864 1.746 4.886 3.786 0.79 1.574 0.84 2.794 0.554 5.008-0.504 3.728-1.41 6.056-3.054 7.746l-2.606 2.624 3.29 1.574 1.010 0.524c2.334 1.050 4.552 2.098 6.416 3.496h-23.146c0.404-0.292 0.908-0.528 1.142-0.704 0.288-0.114 0.504-0.29 0.738-0.406 1.868-1.108 3.914-2.098 5.612-2.91l3.292-1.574-2.622-2.624c-2.032-2.038-2.99-4.716-3.224-9.086-0.116-1.978 0.622-3.958 1.934-5.416 1.29-1.398 3.004-2.156 4.754-2.156z"></path>
</svg>
