<?xml version="1.0" encoding="utf-8"?>
<!-- Generated by IcoMoon.io -->
<!DOCTYPE svg PUBLIC "-//W3C//DTD SVG 1.1//EN" "http://www.w3.org/Graphics/SVG/1.1/DTD/svg11.dtd">
<svg version="1.1" xmlns="http://www.w3.org/2000/svg" xmlns:xlink="http://www.w3.org/1999/xlink" width="27" height="32" viewBox="0 0 27 32">
<path fill="#cb5c5c" d="M28 5.401v24c0 1.399-1.198 2.599-2.802 2.599h-22.395c-1.605 0-2.802-1.198-2.802-2.599v-26.802c0-1.401 1.198-2.599 2.802-2.599h19.198l6 5.401z"></path>
<path fill="#fff" d="M21.001 0.802v3.001c0 1.397 1.198 2.599 2.802 2.599h3.397l-6.199-5.6z"></path>
<path fill="#fff" d="M3.801 28c-0.603 0-0.802-0.199-1.001-0.599s-0.201-0.805-0.201-1.401c0.201-0.599 0.4-1.198 1.001-1.801 0.802-0.798 1.801-1.397 3.001-2 0.597-0.199 1.399-0.601 2.201-1.001 0.999-1.397 2.199-3.797 3.198-6.197 0-0.199 0.199-0.599 0.199-0.802-0.199-0.798-0.398-1.397-0.599-1.799-0.199-1.001-0.4-1.801-0.4-2.4s0-1.401 0-2 0.201-1.198 0.4-1.401c0.4-0.599 0.8-0.798 0.999-0.798 0.201 0 0.4 0 0.4-0.201 0.199 0 0.4 0 0.802 0 0.199 0.201 0.398 0.201 0.599 0.4v0c1.001 0.4 0.798 1.198 0.798 2.199v0.4c-0.197 1.202-0.599 3.401-1.397 5.401 0.199 0.199 0.199 0.199 0.199 0.4 0.599 1.001 1.198 2 2.199 3.2 0.4 0.4 0.802 0.999 1.399 1.6 0.805 0 1.6 0 2.402 0s1.598 0.203 2.199 0.4c0.802 0.203 1.399 0.402 1.801 0.805 0.599 0.4 1.198 1.001 1.401 1.598 0.197 0.599 0.4 1.401 0 2-0.203 0.599-0.805 0.802-1.401 1.198-0.599 0.203-1.198 0.203-1.801 0-0.601-0.199-1.198-0.601-2-1.001-0.798-0.601-1.397-1.198-2.398-2-0.4-0.398-0.603-0.601-0.999-1.001-0.603 0-1.202 0.203-2 0.203-1.001 0.197-2 0.4-3.401 0.798-0.599 0.203-1.202 0.4-1.801 0.603 0 0.199-0.199 0.199-0.199 0.398-1.202 1.801-2.4 3.202-3.401 4-0.802 0.603-1.401 1.001-2.199 1.202 0.199-0.601 0-0.402 0-0.402zM7.198 23.598c-1.397 0.601-2.199 1.401-2.599 1.6-0.4 0.4-0.599 0.802-0.599 1.001 0 0 0 0 0 0.203 0.199 0 0.599-0.203 1.198-0.805 0.402-0.4 1.202-0.999 2-2zM19.001 20.599v0c0.802 0.805 1.598 1.401 2.199 2 0.603 0.402 1.202 0.805 1.602 0.805s0.601 0 1.001 0c0.199 0 0.398-0.203 0.398-0.402s0-0.402 0-0.599c-0.199-0.203-0.398-0.601-0.798-0.805-0.402-0.197-0.805-0.4-1.401-0.599s-1.403-0.197-2.002-0.4c-0.599 0-0.802 0-0.999 0zM13.198 16c-0.599 1.6-1.397 3.198-2.197 4.402h0.199c1.399-0.402 2.601-0.601 3.602-0.805 0.398 0 0.599-0.197 1.001-0.197-0.402-0.4-0.606-0.599-0.802-0.999-0.601-0.802-1.2-1.6-1.803-2.402zM13.198 7.001l-0.197 0.197c0 0-0.199 0.201-0.199 0.802s0 1.198 0 1.6c0 0.599 0.199 1.202 0.398 1.801 0.201-1.202 0.4-2.4 0.603-3.202v-0.398c0-0.201 0-0.603 0-0.802-0.203 0.002-0.203 0.002-0.606 0.002z"></path>
</svg>
