<?xml version="1.0" encoding="utf-8"?>
<!-- Generated by IcoMoon.io -->
<!DOCTYPE svg PUBLIC "-//W3C//DTD SVG 1.1//EN" "http://www.w3.org/Graphics/SVG/1.1/DTD/svg11.dtd">
<svg version="1.1" xmlns="http://www.w3.org/2000/svg" xmlns:xlink="http://www.w3.org/1999/xlink" width="28" height="32" viewBox="0 0 28 32">
<path fill="#d04526" d="M28 5.4v24c0 1.4-1.2 2.6-2.8 2.6h-22.4c-1.6 0-2.8-1.2-2.8-2.6v-26.8c0-1.4 1.2-2.6 2.8-2.6h19.2l6 5.4z"></path>
<path fill="#fff" d="M21 0.8v3c0 1.4 1.2 2.6 2.8 2.6h3.4z"></path>
<path fill="#fff" d="M3 9.4v17l12.4 2v-21z"></path>
<path fill="#d04526" d="M9.4 17.4c0.8 0 0.8-0.6 0.8-1.2s-0.6-0.6-0.6-0.6h-1v1.8c0 0 0.2 0 0.8 0zM8.6 21h-1.2v-6.4l2.2-0.2c0 0 2-0.2 2 2 0 2.4-2 2.6-2 2.6h-1v2z"></path>
<path fill="#fff" d="M16.2 12.2v-0.6h8.2c0 0 0.8-0.2 0.8 0.4v9.2c0 0 0 0.6-0.6 0.6h-0.6v-9.4l-7.8-0.2z"></path>
<path fill="#fff" d="M20.2 17c-0.2 1.2-1.4 2.2-2.6 2.2-0.6 0-1-0.2-1.6-0.4v1.4h5v1h-5v0.8h5v1h-5v1.4h7c0 0 0.4 0 0.4-0.6v-10.4c0 0 0-0.4-0.6-0.4h-6.8v1.4c0.4-0.2 0.8-0.4 1-0.4v3h3.2z"></path>
</svg>
