<?xml version="1.0" encoding="utf-8"?>
<!-- Generated by IcoMoon.io -->
<!DOCTYPE svg PUBLIC "-//W3C//DTD SVG 1.1//EN" "http://www.w3.org/Graphics/SVG/1.1/DTD/svg11.dtd">
<svg version="1.1" xmlns="http://www.w3.org/2000/svg" xmlns:xlink="http://www.w3.org/1999/xlink" width="32" height="32" viewBox="0 0 32 32">
<path d="M15.772 19.428c0-0.228 0-0.458-0.228-0.458l-2.286-2.286c-0.228-0.228-0.458-0.458-0.686-0.458s-0.458 0-0.458 0.228l-6.858 6.858-2.972-2.972c-0.228-0.228-0.686-0.228-0.914-0.228-0.686 0-1.372 0.458-1.372 1.142v9.372c0 0.686 0.686 1.372 1.372 1.372h9.372c0.686 0 1.372-0.686 1.372-1.372 0-0.458-0.228-0.686-0.458-0.914l-2.972-2.972 6.858-6.858c0-0.228 0.228-0.458 0.228-0.458zM32 1.372c0-0.686-0.686-1.372-1.372-1.372h-9.372c-0.686 0-1.142 0.686-1.142 1.372 0 0.458 0.228 0.686 0.458 0.914l2.972 2.972-6.858 6.858c-0.228 0.228-0.458 0.458-0.458 0.458 0 0.228 0 0.458 0.228 0.458l2.286 2.286c0.228 0.228 0.228 0.228 0.458 0.228s0.458 0 0.458-0.228l6.858-6.858 3.2 3.2c0.228 0.228 0.686 0.458 0.914 0.458 0.686-0.228 1.372-0.686 1.372-1.372v-9.372z"></path>
</svg>
