<?xml version="1.0" encoding="utf-8"?>
<!-- Generated by IcoMoon.io -->
<!DOCTYPE svg PUBLIC "-//W3C//DTD SVG 1.1//EN" "http://www.w3.org/Graphics/SVG/1.1/DTD/svg11.dtd">
<svg version="1.1" xmlns="http://www.w3.org/2000/svg" xmlns:xlink="http://www.w3.org/1999/xlink" width="30" height="32" viewBox="0 0 30 32">
<path d="M29.4 0.4c-0.8-0.8-1.8 0-2.4 0.8l-3.8 4.2c-1.6-1.2-3.2-2-5-2-2.4 0-4.8 1-6.6 3l-5.6 6c-3.2 3.4-3.4 8.2-1 12.2l-3.8 4.2c-0.8 0.8-1.4 2-0.8 2.8 0.2 0.2 0.8 0.4 1.2 0.4 0.6 0 1-0.2 1.4-0.6l3.8-4.2c1.6 1.2 3 1.2 4.8 1.2 2.4 0 4.8-1 6.6-3l5.6-6c3.4-3.4 4.2-8.2 1.8-12.2l3.8-4.2c0.8-0.6 0.8-1.8 0-2.6zM24 12.6c0 1.8-0.6 3.4-1.8 4.6l-6.2 6.4c-1.2 1.2-2.6 2-4.2 2-0.8 0-2.4-0.2-3.2-0.6l3-3.2c0.8-0.8 1.4-2.2 0.8-3-0.8-0.8-1.8 0-2.6 0.8l-3 3.2c-0.6-1-1-2.8-1-3.6 0-1.8 0.6-3.4 1.8-4.6l6-6.4c1.2-1.2 2.6-2 4.2-2 1 0 2.6 0.4 3.4 1l-3 3.2c-0.8 0.8-1.6 2-0.8 2.8 0.4 0.4 0.8 0.6 1.4 0.6s1-0.2 1.4-0.6l3.2-3.4c0.4 1 0.6 1.8 0.6 2.8z"></path>
</svg>
