<?xml version="1.0" encoding="utf-8"?>
<!-- Generated by IcoMoon.io -->
<!DOCTYPE svg PUBLIC "-//W3C//DTD SVG 1.1//EN" "http://www.w3.org/Graphics/SVG/1.1/DTD/svg11.dtd">
<svg version="1.1" xmlns="http://www.w3.org/2000/svg" xmlns:xlink="http://www.w3.org/1999/xlink" width="32" height="32" viewBox="0 0 32 32">
<path d="M27.315 4.687c-3.023-3.023-7.042-4.687-11.315-4.687s-8.292 1.664-11.313 4.687-4.687 7.040-4.687 11.313c0 4.273 1.664 8.292 4.687 11.315 3.021 3.021 7.040 4.685 11.313 4.685s8.292-1.664 11.315-4.685c3.021-3.023 4.685-7.042 4.685-11.315s-1.664-8.292-4.685-11.313zM28 16c0 2.588-0.826 4.988-2.223 6.95l-16.725-16.727c1.963-1.399 4.361-2.223 6.948-2.223 6.618 0 12 5.382 12 12zM4 16c0-2.588 0.823-4.986 2.223-6.948l16.727 16.725c-1.963 1.399-4.363 2.223-6.95 2.223-6.618 0-12-5.382-12-12z"></path>
</svg>
