<?xml version="1.0" encoding="utf-8"?>
<!-- Generated by IcoMoon.io -->
<!DOCTYPE svg PUBLIC "-//W3C//DTD SVG 1.1//EN" "http://www.w3.org/Graphics/SVG/1.1/DTD/svg11.dtd">
<svg version="1.1" xmlns="http://www.w3.org/2000/svg" xmlns:xlink="http://www.w3.org/1999/xlink" width="32" height="32" viewBox="0 0 32 32">
<path d="M16 32c-8.842 0-16-7.158-16-16s7.158-16 16-16 16 7.158 16 16-7.158 16-16 16zM16 2.526c-7.41 0-13.474 6.064-13.474 13.474s6.064 13.474 13.474 13.474 13.474-6.064 13.474-13.474-6.064-13.474-13.474-13.474z"></path>
<path d="M17.852 19.284c-1.768 1.010-4.126 0.422-5.136-1.348s-0.422-4.126 1.348-5.136c1.768-1.010 4.126-0.422 5.136 1.348 1.094 1.768 0.506 4.042-1.348 5.136zM16 8.506l-6.484 3.79v7.494l6.484 3.79 6.484-3.79v-7.494l-6.484-3.79z"></path>
</svg>
