<?xml version="1.0" encoding="utf-8"?>
<!-- Generated by IcoMoon.io -->
<!DOCTYPE svg PUBLIC "-//W3C//DTD SVG 1.1//EN" "http://www.w3.org/Graphics/SVG/1.1/DTD/svg11.dtd">
<svg version="1.1" xmlns="http://www.w3.org/2000/svg" xmlns:xlink="http://www.w3.org/1999/xlink" width="32" height="32" viewBox="0 0 32 32">
<path d="M16 32c-8.842 0-16-7.158-16-16s7.158-16 16-16 16 7.158 16 16-7.158 16-16 16zM16 2.526c-7.41 0-13.474 6.064-13.474 13.474s6.064 13.474 13.474 13.474 13.474-6.064 13.474-13.474-6.064-13.474-13.474-13.474z"></path>
<path d="M16 8.422c-4.126 0-7.578 3.368-7.578 7.578s3.452 7.578 7.578 7.578c4.21 0 7.578-3.368 7.578-7.578s-3.368-7.578-7.578-7.578zM16.926 22.316c-0.168 0-0.422 0-0.59 0.084v-2.864h2.358c-0.422 1.264-1.094 2.274-1.768 2.778zM13.39 19.536h2.274v2.864c-0.168 0-0.422 0-0.59-0.084-0.674-0.506-1.264-1.516-1.684-2.778zM9.684 16.336h2.61c0 0.926 0.084 1.768 0.252 2.526h-2.19c-0.422-0.758-0.674-1.6-0.674-2.526zM15.074 9.684c0.168 0 0.422 0 0.59-0.084v2.864h-2.358c0.506-1.264 1.094-2.274 1.768-2.778zM18.694 12.548h-2.358v-2.864c0.168 0 0.422 0 0.59 0.084 0.674 0.422 1.348 1.432 1.768 2.778zM18.864 13.136c0.168 0.758 0.336 1.6 0.336 2.526h-2.864v-2.526h2.526zM15.664 13.136v2.526h-2.778c0-0.842 0.168-1.768 0.336-2.526h2.442zM12.21 15.664h-2.61c0-0.926 0.252-1.768 0.674-2.526h2.19c-0.084 0.842-0.252 1.684-0.252 2.526zM12.884 16.336h2.778v2.526h-2.442c-0.252-0.758-0.336-1.6-0.336-2.526zM16.336 18.864v-2.526h2.864c0 0.926-0.168 1.768-0.336 2.526h-2.526zM19.79 16.336h2.526c-0.084 0.926-0.252 1.768-0.674 2.526h-2.19c0.168-0.758 0.336-1.6 0.336-2.526zM19.79 15.664c0-0.842-0.168-1.768-0.252-2.526h2.19c0.422 0.758 0.59 1.6 0.674 2.526h-2.61zM21.306 12.548h-2.022c-0.252-1.010-0.674-1.852-1.178-2.526 1.348 0.506 2.442 1.348 3.2 2.526zM13.894 10.022c-0.506 0.674-0.926 1.516-1.178 2.526h-2.022c0.758-1.178 1.852-2.022 3.2-2.526zM10.778 19.536h1.936c0.252 1.010 0.674 1.852 1.178 2.442-1.348-0.506-2.442-1.348-3.116-2.442zM18.19 21.978c0.506-0.59 0.842-1.432 1.178-2.442h1.936c-0.758 1.094-1.852 1.936-3.116 2.442z"></path>
</svg>
