<?xml version="1.0" encoding="utf-8"?>
<!-- Generated by IcoMoon.io -->
<!DOCTYPE svg PUBLIC "-//W3C//DTD SVG 1.1//EN" "http://www.w3.org/Graphics/SVG/1.1/DTD/svg11.dtd">
<svg version="1.1" xmlns="http://www.w3.org/2000/svg" xmlns:xlink="http://www.w3.org/1999/xlink" width="32" height="32" viewBox="0 0 32 32">
<path d="M16 32c-8.842 0-16-7.158-16-16s7.158-16 16-16 16 7.158 16 16-7.158 16-16 16zM16 2.526c-7.41 0-13.474 6.064-13.474 13.474s6.064 13.474 13.474 13.474 13.474-6.064 13.474-13.474-6.064-13.474-13.474-13.474z"></path>
<path d="M13.894 10.864h4.21c0.336 0 0.674-0.252 0.674-0.59v0c0 0 0-0.758 0-0.758 0-0.336-0.252-0.59-0.59-0.59 0 0-0.084 0-0.084 0h-1.178v-0.084c0-0.336-0.336-0.674-0.674-0.674h-0.252c-0.336 0-0.674 0.336-0.674 0.674v0.084h-0.758c0 0-0.758 0-0.758 0-0.336 0-0.59 0.252-0.59 0.59 0 0 0 0.084 0 0.084v0.674c0 0.336 0.336 0.59 0.674 0.59z"></path>
<path d="M18.022 16.674c-1.684 1.852-3.116 3.958-3.116 3.958l-3.79-3.284 0.926-0.758 2.358 1.684c0 0 1.178-1.516 2.778-2.778 1.516-1.264 3.452-2.274 3.452-2.274l0.336 0.674c-0.084 0.084-1.684 1.348-2.948 2.778zM21.474 8.926h-2.022v1.432c0 0.59-0.506 1.094-1.094 1.094h-4.548c-0.59 0-1.094-0.506-1.094-1.094v-1.432h-2.022c-0.758 0-1.348 0.59-1.348 1.348v12.21c0 0.758 0.59 1.348 1.348 1.348h10.948c0.758 0 1.348-0.59 1.348-1.348v-12.21c-0.168-0.758-0.758-1.348-1.516-1.348z"></path>
</svg>
