<?xml version="1.0" encoding="utf-8"?>
<!-- Generated by IcoMoon.io -->
<!DOCTYPE svg PUBLIC "-//W3C//DTD SVG 1.1//EN" "http://www.w3.org/Graphics/SVG/1.1/DTD/svg11.dtd">
<svg version="1.1" xmlns="http://www.w3.org/2000/svg" xmlns:xlink="http://www.w3.org/1999/xlink" width="32" height="32" viewBox="0 0 32 32">
<path d="M20.378 21.894h-2.19v-1.516h2.19v1.516zM20.378 18.948h-2.19v-1.516h2.19v1.516zM20.378 16h-2.19v-1.516h2.19v1.516zM20.378 13.052h-8.758v-2.948h8.842v2.948zM11.622 14.484h2.19v1.516h-2.19v-1.516zM11.622 17.516h2.19v1.516h-2.19v-1.516zM11.622 20.378h2.19v1.516h-2.19v-1.516zM14.906 14.484h2.19v1.516h-2.19v-1.516zM14.906 17.516h2.19v1.516h-2.19v-1.516zM14.906 20.378h2.19v1.516h-2.19v-1.516zM20.378 23.41c0.842 0 1.516-0.674 1.516-1.516v-11.79c0-0.842-0.674-1.516-1.516-1.516h-8.758c-0.842 0-1.516 0.674-1.516 1.516v11.79c0 0.842 0.674 1.516 1.516 1.516h8.758z"></path>
<path d="M16 32c-8.842 0-16-7.158-16-16s7.158-16 16-16 16 7.158 16 16-7.158 16-16 16zM16 2.526c-7.41 0-13.474 6.064-13.474 13.474s6.064 13.474 13.474 13.474 13.474-6.064 13.474-13.474-6.064-13.474-13.474-13.474z"></path>
</svg>
