<?xml version="1.0" encoding="utf-8"?>
<!-- Generated by IcoMoon.io -->
<!DOCTYPE svg PUBLIC "-//W3C//DTD SVG 1.1//EN" "http://www.w3.org/Graphics/SVG/1.1/DTD/svg11.dtd">
<svg version="1.1" xmlns="http://www.w3.org/2000/svg" xmlns:xlink="http://www.w3.org/1999/xlink" width="32" height="32" viewBox="0 0 32 32">
<path d="M16 32c-8.842 0-16-7.158-16-16s7.158-16 16-16 16 7.158 16 16c0 8.842-7.158 16-16 16zM16 2.526c-7.41 0-13.474 6.064-13.474 13.474s6.064 13.474 13.474 13.474 13.474-6.064 13.474-13.474c0-7.41-6.064-13.474-13.474-13.474z"></path>
<path d="M11.2 22.822c-0.758 0-1.348-0.59-1.348-1.348v-10.948c0-0.758 0.59-1.348 1.348-1.348v13.642z"></path>
<path d="M20.126 13.978h-5.474v-2.694h5.474v2.694zM17.348 22.822h4.8v-13.642h-9.6v13.642h2.022z"></path>
</svg>
