<?xml version="1.0" encoding="utf-8"?>
<!-- Generated by IcoMoon.io -->
<!DOCTYPE svg PUBLIC "-//W3C//DTD SVG 1.1//EN" "http://www.w3.org/Graphics/SVG/1.1/DTD/svg11.dtd">
<svg version="1.1" xmlns="http://www.w3.org/2000/svg" xmlns:xlink="http://www.w3.org/1999/xlink" width="32" height="32" viewBox="0 0 32 32">
<path d="M16 32c-8.842 0-16-7.158-16-16s7.158-16 16-16 16 7.158 16 16-7.158 16-16 16zM16 2.526c-7.41 0-13.474 6.064-13.474 13.474s6.064 13.474 13.474 13.474 13.474-6.064 13.474-13.474-6.064-13.474-13.474-13.474z"></path>
<path d="M11.116 14.064l5.306-5.39-1.178-1.178-5.306 5.39 1.178 1.178zM19.2 22.232l5.306-5.39-1.178-1.178-5.306 5.39 1.178 1.178zM8.926 24.506l6.736-6.822 2.022 2.106 4.378-4.464-2.022-2.106 0.506-0.506-1.432-1.516-0.506 0.59-1.768-1.852-4.378 4.464 1.768 1.768-6.736 6.822 1.432 1.516z"></path>
</svg>
