<?xml version="1.0" encoding="utf-8"?>
<!-- Generated by IcoMoon.io -->
<!DOCTYPE svg PUBLIC "-//W3C//DTD SVG 1.1//EN" "http://www.w3.org/Graphics/SVG/1.1/DTD/svg11.dtd">
<svg version="1.1" xmlns="http://www.w3.org/2000/svg" xmlns:xlink="http://www.w3.org/1999/xlink" width="41" height="32" viewBox="0 0 41 32">
<path fill="#fff" d="M27.021 14.156v-3.744c0-0.146-0.118-0.264-0.264-0.264h-13.552c-0.145 0-0.264 0.118-0.264 0.264v6.29h1.017l0.019 2.217h4.567v0.432h0.176v-0.425h2.58v0.472h0.176v-0.479h3.557l0.057-4.466 1.93-0.298zM25.148 18.743h-11.119l-0.068-2.108h-0.843v-6.223c0-0.049 0.039-0.088 0.088-0.088h13.552c0.048 0 0.088 0.040 0.088 0.088v3.744l-1.726 0.241 0.028 4.346zM21.464 20.229l0.732 0.683h-4.428l0.664-0.664 0.124 0.125-0.364 0.363h3.557l-0.405-0.379 0.12-0.128zM13.96 18.295h11.117v-3.743l1.22-0.567v-3.224h-12.648v5.992l0.309-0.010 0.001 1.552zM13.825 10.937h12.296v3.19l-1.413 0.014v3.977h-10.573l-0.002-1.564-0.308 0.012v-5.629z"></path>
<path fill="#fff" d="M14.003 16.261c-0.003 0-0.005 0-0.008 0h-2.636c-0.003 0-0.005 0-0.008 0h-0.161v5.542h0.021c0.024 0.052 0.081 0.105 0.148 0.105h2.636c0.066 0 0.123-0.052 0.147-0.105h0.028v-5.542h-0.167zM12.549 16.575h0.209v0.105h-0.209v-0.105zM12.81 21.542h-0.261v-0.105h0.261v0.105zM13.804 21.176h-2.248v-4.235h2.248v4.235z"></path>
<path fill="#fff" d="M11.66 17.098h2.039v3.974h-2.039v-3.974z"></path>
<path fill="#fff" d="M30.005 13.961h-5.218c-0.098 0-0.159 0.053-0.159 0.143v7.591c0 0.090 0.061 0.161 0.159 0.161h5.218c0.097 0 0.165-0.070 0.165-0.161v-7.591c0-0.090-0.068-0.143-0.165-0.143zM27.294 14.327h0.209v0.105h-0.209v-0.105zM27.556 21.49h-0.314v-0.157h0.314v0.157zM29.49 21.072h-4.183v-6.327h4.183v6.327z"></path>
<path fill="#fff" d="M25.412 14.85h3.974v6.065h-3.974v-6.065z"></path>
</svg>
