<?xml version="1.0" encoding="utf-8"?>
<!-- Generated by IcoMoon.io -->
<!DOCTYPE svg PUBLIC "-//W3C//DTD SVG 1.1//EN" "http://www.w3.org/Graphics/SVG/1.1/DTD/svg11.dtd">
<svg version="1.1" xmlns="http://www.w3.org/2000/svg" xmlns:xlink="http://www.w3.org/1999/xlink" width="32" height="32" viewBox="0 0 32 32">
<path d="M32 9.066h-1.6c0-1.334-0.266-2.4-0.534-3.466-0.266-0.8-0.8-1.6-1.334-2.134-0.8-0.534-1.334-0.8-2.134-1.066s-1.6-0.266-2.666-0.266c-1.066 0-1.866 0-2.4 0s-1.066 0-1.334 0.266c-0.8 0-0.8 0.266-1.066 0.534 0 0.266-0.266 0.266-0.266 0.534v21.866c0 0.8 0 1.6 0.266 2.4 0 0.534 0.266 1.066 0.8 1.6 0.266 0.266 0.8 0.8 1.6 0.8 0.8 0.266 1.6 0.266 2.934 0.266v1.6h-16.8v-1.6c1.066 0 2.134-0.266 2.934-0.266 0.8-0.266 1.334-0.534 1.6-0.8 0.266-0.534 0.534-0.8 0.8-1.6 0-0.534 0.266-1.334 0.266-2.4v-21.866c0-0.266 0-0.534-0.266-0.534 0-0.266-0.266-0.266-0.534-0.266s-0.8-0.266-1.334-0.266c-0.534 0-1.334 0-2.134 0-1.066 0-1.866 0-2.666 0.266s-1.6 0-2.4 0.534c-0.534 0.266-1.066 1.066-1.6 2.134-0.266 0.8-0.534 2.134-0.534 3.734h-1.6l0.534-9.066h31.2l0.266 9.066z"></path>
</svg>
