<?xml version="1.0" encoding="utf-8"?>
<!-- Generated by IcoMoon.io -->
<!DOCTYPE svg PUBLIC "-//W3C//DTD SVG 1.1//EN" "http://www.w3.org/Graphics/SVG/1.1/DTD/svg11.dtd">
<svg version="1.1" xmlns="http://www.w3.org/2000/svg" xmlns:xlink="http://www.w3.org/1999/xlink" width="32" height="32" viewBox="0 0 32 32">
<path d="M18.972 32h-5.714l-1.6-4.342-0.914-0.458-4.114 2.058-3.886-3.886 2.058-4.114-0.458-0.914-4.342-1.372v-5.714l4.342-1.6 0.458-0.914-2.058-4.114 3.886-3.886 4.114 2.058 0.914-0.458 1.372-4.342h5.714l1.6 4.342 0.914 0.458 4.114-2.058 3.886 3.886-2.058 4.114 0.458 0.914 4.342 1.372v5.714l-4.342 1.6-0.458 0.914 2.058 4.114-3.886 3.886-4.114-2.058-0.914 0.458-1.372 4.342zM15.542 28.8h0.914l1.142-3.658 3.658-1.6 3.428 1.6 0.686-0.686-1.6-3.428 1.372-3.428 3.428-1.372v-0.686l-3.428-1.142-1.6-3.658 1.6-3.428-0.686-0.686-3.2 1.828-3.658-1.6-1.142-3.658h-0.914l-1.142 3.658-3.658 1.6-3.428-1.6-0.686 0.458 1.6 3.428-1.372 3.658-3.658 1.142v0.914l3.658 1.142 1.6 3.658-1.6 3.428 0.686 0.686 3.428-1.6 3.428 1.372 1.142 3.658z"></path>
<path d="M16 14.858c0.686 0 1.142 0.458 1.142 1.142s-0.458 1.142-1.142 1.142c-0.686 0-1.142-0.458-1.142-1.142s0.458-1.142 1.142-1.142zM16 12.8c-1.828 0-3.2 1.372-3.2 3.2s1.372 3.2 3.2 3.2c1.828 0 3.2-1.372 3.2-3.2s-1.372-3.2-3.2-3.2z"></path>
</svg>
