<?xml version="1.0" encoding="utf-8"?>
<!-- Generated by IcoMoon.io -->
<!DOCTYPE svg PUBLIC "-//W3C//DTD SVG 1.1//EN" "http://www.w3.org/Graphics/SVG/1.1/DTD/svg11.dtd">
<svg version="1.1" xmlns="http://www.w3.org/2000/svg" xmlns:xlink="http://www.w3.org/1999/xlink" width="32" height="32" viewBox="0 0 32 32">
<path d="M23.31 25.046v1.436c0 0.818 0.806 1.484 1.626 1.484s1.626-0.666 1.626-1.484v-5.7c0-0.818 0.058-1.152-0.762-1.152h-6.028c-0.82 0-1.484 0.536-1.484 1.354s0.664 1.354 1.484 1.354h3.362l0.008-0.258-1.41 0.77c-2.388 1.774-3.756 2.19-5.26 3.31-7.268-5.402-11.572-10.354-12.114-14.6v-1.414c0.54-3.382 2.966-4.804 4.302-4.934 0.364-0.036 0.996-0.054 1.31-0.054 1.922 0 2.866 0.588 4.454 2.48l2.548 2.95 2.512-2.95c1.586-1.89 2.406-2.48 4.328-2.48 0.312 0 0.198 0.018 0.562 0.054 1.336 0.13 2.73 1.552 3.272 4.934v1.414c0 0.026 0.002-0.026 0 0l-0.104 2.654 2.8 0.586c0.384-1.486 0.528-2.39 0.552-3.104v-1.69c-0.542-5.080-3.294-7.728-6.19-8.010-0.476-0.046-0.692-0.070-1.108-0.070-3.346 0-4.834 1.446-6.67 3.634-1.836-2.188-3.384-3.634-6.726-3.634-0.418 0-1.416 0.022-1.892 0.070-2.894 0.282-6.66 2.932-7.202 8.010v1.69c0.542 4.86 4.63 10.856 15.354 18.378 1.224-0.86 5.966-4.35 7.012-5.17z"></path>
</svg>
