<?xml version="1.0" encoding="utf-8"?>
<!-- Generated by IcoMoon.io -->
<!DOCTYPE svg PUBLIC "-//W3C//DTD SVG 1.1//EN" "http://www.w3.org/Graphics/SVG/1.1/DTD/svg11.dtd">
<svg version="1.1" xmlns="http://www.w3.org/2000/svg" xmlns:xlink="http://www.w3.org/1999/xlink" width="32" height="32" viewBox="0 0 32 32">
<path d="M16 7.047c0.751 0 1.354-0.608 1.354-1.351 0-0.751-0.603-1.356-1.354-1.356s-1.356 0.608-1.356 1.356c0 0.746 0.606 1.351 1.356 1.351zM16 2.71c0.751 0 1.354-0.606 1.354-1.356 0-0.743-0.603-1.351-1.354-1.351s-1.356 0.608-1.356 1.351c0 0.751 0.606 1.356 1.356 1.356zM16 32c0.751 0 1.354-0.608 1.354-1.359 0-0.746-0.603-1.351-1.354-1.351s-1.356 0.603-1.356 1.351c0 0.751 0.606 1.359 1.356 1.359zM16 27.66c0.751 0 1.354-0.606 1.354-1.356 0-0.746-0.603-1.359-1.354-1.359s-1.356 0.613-1.356 1.359c0 0.751 0.606 1.356 1.356 1.356zM23.050 9.765c0.751 0 1.356-0.608 1.356-1.356s-0.606-1.356-1.356-1.356-1.354 0.606-1.354 1.354 0.603 1.359 1.354 1.359zM26.304 6.508c0.751 0 1.356-0.613 1.356-1.356 0-0.751-0.606-1.356-1.356-1.356s-1.359 0.608-1.359 1.356c0 0.743 0.61 1.356 1.359 1.356zM5.152 27.66c0.751 0 1.351-0.606 1.351-1.356 0-0.746-0.601-1.359-1.351-1.359s-1.356 0.613-1.356 1.359c0 0.751 0.606 1.356 1.356 1.356zM8.406 24.406c0.751 0 1.356-0.606 1.356-1.356s-0.606-1.351-1.356-1.351-1.356 0.603-1.356 1.354 0.608 1.354 1.356 1.354zM8.406 9.765c0.751 0 1.356-0.608 1.356-1.356s-0.606-1.359-1.356-1.359-1.356 0.608-1.356 1.356 0.608 1.359 1.356 1.359zM5.152 6.508c0.751 0 1.351-0.613 1.351-1.356 0-0.751-0.601-1.356-1.351-1.356s-1.356 0.606-1.356 1.356c0 0.743 0.606 1.356 1.356 1.356zM26.304 27.66c0.751 0 1.356-0.606 1.356-1.356 0-0.746-0.606-1.359-1.356-1.359s-1.359 0.613-1.359 1.359c0 0.751 0.61 1.356 1.359 1.356zM23.050 24.406c0.751 0 1.356-0.606 1.356-1.356s-0.606-1.354-1.356-1.354-1.354 0.603-1.354 1.354 0.603 1.356 1.354 1.356zM5.696 17.354c0.743 0 1.351-0.603 1.351-1.354s-0.606-1.356-1.351-1.356c-0.751 0-1.356 0.608-1.356 1.356s0.608 1.354 1.356 1.354zM1.351 17.354c0.751 0 1.356-0.603 1.356-1.354s-0.606-1.356-1.356-1.356c-0.743 0-1.351 0.606-1.351 1.356s0.608 1.354 1.351 1.354zM30.641 17.354c0.751 0 1.359-0.603 1.359-1.354s-0.608-1.356-1.359-1.356-1.351 0.606-1.351 1.356 0.601 1.354 1.351 1.354zM26.304 17.354c0.751 0 1.356-0.603 1.356-1.354s-0.606-1.356-1.356-1.356-1.359 0.606-1.359 1.356 0.61 1.354 1.359 1.354zM16 22.777c3.742 0 6.777-3.033 6.777-6.777s-3.035-6.777-6.777-6.777c-3.746 0-6.782 3.033-6.782 6.777s3.035 6.777 6.782 6.777z"></path>
</svg>
