<?xml version="1.0" encoding="utf-8"?>
<!-- Generated by IcoMoon.io -->
<!DOCTYPE svg PUBLIC "-//W3C//DTD SVG 1.1//EN" "http://www.w3.org/Graphics/SVG/1.1/DTD/svg11.dtd">
<svg version="1.1" xmlns="http://www.w3.org/2000/svg" xmlns:xlink="http://www.w3.org/1999/xlink" width="32" height="32" viewBox="0 0 32 32">
<path d="M0 1.529v12.24c0 0.843 0.489 2.016 1.081 2.61l15.175 15.175c0.594 0.594 1.568 0.594 2.165 0l13.134-13.134c0.594-0.594 0.594-1.568 0-2.165l-15.175-15.175c-0.594-0.592-1.771-1.081-2.61-1.081h-12.24c-0.841 0-1.529 0.688-1.529 1.529zM6.121 9.179c0-1.689 1.369-3.058 3.058-3.058s3.058 1.369 3.058 3.058c0 1.689-1.369 3.058-3.058 3.058s-3.058-1.369-3.058-3.058z"></path>
</svg>
