<?xml version="1.0" encoding="utf-8"?>
<!-- Generated by IcoMoon.io -->
<!DOCTYPE svg PUBLIC "-//W3C//DTD SVG 1.1//EN" "http://www.w3.org/Graphics/SVG/1.1/DTD/svg11.dtd">
<svg version="1.1" xmlns="http://www.w3.org/2000/svg" xmlns:xlink="http://www.w3.org/1999/xlink" width="44" height="32" viewBox="0 0 44 32">
<path d="M12.8 0.96h32v4.48h-32v-4.48z"></path>
<path d="M6.4 3.2c0 1.92-1.28 3.2-3.2 3.2s-3.2-1.28-3.2-3.2c0-1.92 1.28-3.2 3.2-3.2s3.2 1.28 3.2 3.2z"></path>
<path d="M12.8 13.76h32v4.48h-32v-4.48z"></path>
<path d="M6.4 16c0 1.92-1.28 3.2-3.2 3.2s-3.2-1.28-3.2-3.2c0-1.92 1.28-3.2 3.2-3.2s3.2 1.28 3.2 3.2z"></path>
<path d="M12.8 26.56h32v4.48h-32v-4.48z"></path>
<path d="M6.4 28.8c0 1.92-1.28 3.2-3.2 3.2s-3.2-1.28-3.2-3.2c0-1.92 1.28-3.2 3.2-3.2s3.2 1.28 3.2 3.2z"></path>
</svg>
