<?xml version="1.0" encoding="utf-8"?>
<!-- Generated by IcoMoon.io -->
<!DOCTYPE svg PUBLIC "-//W3C//DTD SVG 1.1//EN" "http://www.w3.org/Graphics/SVG/1.1/DTD/svg11.dtd">
<svg version="1.1" xmlns="http://www.w3.org/2000/svg" xmlns:xlink="http://www.w3.org/1999/xlink" width="32" height="32" viewBox="0 0 32 32">
<path d="M3.192 27.956h25.618v3.044h-25.618v-3.044zM27.654 19.6h-4.054c-0.622 0-1.196-0.332-1.506-0.872l-1.184-2.060h-9.816l-1.188 2.060c-0.304 0.54-0.886 0.872-1.506 0.872h-3.908c-0.522 0-0.982-0.236-1.3-0.6v8.088h25.618v-7.938c-0.306 0.274-0.716 0.45-1.156 0.45v0zM3.192 16.668v0.058c0.016-0.020 0.030-0.036 0.048-0.058h-0.048zM4.492 18.732h3.908c0.314 0 0.598-0.168 0.754-0.434l4.766-8.276c0.132-0.242 0.15-0.528 0.044-0.778-0.11-0.252-0.332-0.438-0.596-0.504-2.204-0.528-3.682-1.676-3.682-2.85 0-1.488 2.596-3.15 6.312-3.15 3.722-0.002 6.318 1.658 6.318 3.15 0 1.174-1.482 2.324-3.686 2.854-0.268 0.062-0.484 0.248-0.596 0.5-0.104 0.25-0.092 0.536 0.050 0.778l4.76 8.278c0.158 0.27 0.446 0.434 0.756 0.434h4.048c0.486 0 0.874-0.388 0.874-0.868 0-0.482-0.386-0.868-0.874-0.868h-3.544l-3.966-6.894c2.408-0.86 3.914-2.446 3.914-4.214 0-2.742-3.54-4.89-8.052-4.89-4.516 0-8.048 2.148-8.048 4.89 0 1.768 1.5 3.35 3.916 4.214l-3.97 6.89h-3.406c-0.482 0.004-0.87 0.388-0.87 0.872 0.004 0.478 0.394 0.866 0.87 0.866v0z"></path>
</svg>
