<?xml version="1.0" encoding="utf-8"?>
<!-- Generated by IcoMoon.io -->
<!DOCTYPE svg PUBLIC "-//W3C//DTD SVG 1.1//EN" "http://www.w3.org/Graphics/SVG/1.1/DTD/svg11.dtd">
<svg version="1.1" xmlns="http://www.w3.org/2000/svg" xmlns:xlink="http://www.w3.org/1999/xlink" width="42" height="32" viewBox="0 0 42 32">
<path fill="#fff" d="M0 0h42.666v32h-42.666v-32z"></path>
<path fill="#b73d45" d="M0 0h42.666v2.666h-42.666v-2.666z"></path>
<path fill="#b73d45" d="M0 5.334h42.666v2.666h-42.666v-2.666z"></path>
<path fill="#b73d45" d="M0 10.666h42.666v2.666h-42.666v-2.666z"></path>
<path fill="#b73d45" d="M0 16h42.666v2.666h-42.666v-2.666z"></path>
<path fill="#b73d45" d="M0 21.376h42.666v2.666h-42.666v-2.666z"></path>
<path fill="#b73d45" d="M0 26.666h42.666v2.666h-42.666v-2.666z"></path>
<path fill="#1c2e5c" d="M0 0h24.32v17.226h-24.32v-17.226z"></path>
<path fill="#fff" d="M1.806 1.416h-0.714l0.582 0.422-0.224 0.68 0.582-0.418 0.578 0.418-0.222-0.68 0.582-0.422h-0.718l-0.222-0.68z"></path>
<path fill="#fff" d="M5.858 1.416h-0.714l0.582 0.422-0.224 0.68 0.578-0.418 0.582 0.418-0.222-0.68 0.582-0.422h-0.718l-0.224-0.68z"></path>
<path fill="#fff" d="M9.912 1.416h-0.714l0.582 0.422-0.224 0.68 0.578-0.418 0.582 0.418-0.224-0.68 0.582-0.422h-0.714l-0.224-0.68z"></path>
<path fill="#fff" d="M13.966 1.416h-0.714l0.582 0.422-0.224 0.68 0.578-0.418 0.582 0.418-0.224-0.68 0.584-0.422h-0.72l-0.222-0.68z"></path>
<path fill="#fff" d="M18.018 1.416h-0.714l0.578 0.422-0.222 0.68 0.578-0.418 0.582 0.418-0.224-0.68 0.582-0.422h-0.718l-0.222-0.68z"></path>
<path fill="#fff" d="M22.072 1.416h-0.714l0.582 0.422-0.222 0.68 0.576-0.418 0.578 0.418-0.222-0.68 0.582-0.422h-0.714l-0.224-0.68z"></path>
<path fill="#fff" d="M3.834 3.138h-0.718l0.578 0.422-0.222 0.68 0.582-0.416 0.576 0.416-0.222-0.68 0.584-0.422h-0.718l-0.222-0.682z"></path>
<path fill="#fff" d="M7.888 3.138h-0.72l0.582 0.422-0.222 0.68 0.582-0.416 0.576 0.416-0.222-0.68 0.584-0.422h-0.718l-0.222-0.682z"></path>
<path fill="#fff" d="M11.942 3.138h-0.72l0.584 0.422-0.222 0.68 0.578-0.416 0.576 0.416-0.222-0.68 0.584-0.422h-0.714l-0.224-0.682z"></path>
<path fill="#fff" d="M15.994 3.138h-0.718l0.582 0.422-0.224 0.68 0.578-0.416 0.582 0.416-0.222-0.68 0.582-0.422h-0.718l-0.224-0.682z"></path>
<path fill="#fff" d="M20.048 3.138h-0.718l0.582 0.422-0.224 0.68 0.578-0.416 0.582 0.416-0.222-0.68 0.578-0.422h-0.714l-0.224-0.682z"></path>
<path fill="#fff" d="M1.806 4.862h-0.714l0.582 0.422-0.224 0.682 0.582-0.418 0.578 0.418-0.222-0.682 0.582-0.422h-0.718l-0.222-0.68z"></path>
<path fill="#fff" d="M5.858 4.862h-0.714l0.582 0.422-0.224 0.682 0.578-0.418 0.582 0.418-0.222-0.682 0.582-0.422h-0.718l-0.224-0.68z"></path>
<path fill="#fff" d="M9.912 4.862h-0.714l0.582 0.422-0.224 0.682 0.578-0.418 0.582 0.418-0.224-0.682 0.582-0.422h-0.714l-0.224-0.68z"></path>
<path fill="#fff" d="M13.966 4.862h-0.714l0.582 0.422-0.224 0.682 0.578-0.418 0.582 0.418-0.224-0.682 0.584-0.422h-0.72l-0.222-0.68z"></path>
<path fill="#fff" d="M18.018 4.862h-0.714l0.578 0.422-0.222 0.682 0.578-0.418 0.582 0.418-0.224-0.682 0.582-0.422h-0.718l-0.222-0.68z"></path>
<path fill="#fff" d="M22.072 4.862h-0.714l0.582 0.422-0.222 0.682 0.576-0.418 0.578 0.418-0.222-0.682 0.582-0.422h-0.714l-0.224-0.68z"></path>
<path fill="#fff" d="M3.834 6.586h-0.718l0.578 0.418-0.222 0.686 0.582-0.422 0.576 0.422-0.222-0.686 0.584-0.418h-0.718l-0.222-0.682z"></path>
<path fill="#fff" d="M7.888 6.586h-0.72l0.582 0.418-0.222 0.686 0.582-0.422 0.576 0.422-0.222-0.686 0.584-0.418h-0.718l-0.222-0.682z"></path>
<path fill="#fff" d="M11.942 6.586h-0.72l0.584 0.418-0.222 0.686 0.578-0.422 0.576 0.422-0.222-0.686 0.584-0.418h-0.714l-0.224-0.682z"></path>
<path fill="#fff" d="M15.994 6.586h-0.718l0.582 0.418-0.224 0.686 0.578-0.422 0.582 0.422-0.222-0.686 0.582-0.418h-0.718l-0.224-0.682z"></path>
<path fill="#fff" d="M20.048 6.586h-0.718l0.582 0.418-0.224 0.686 0.578-0.422 0.582 0.422-0.222-0.686 0.578-0.418h-0.714l-0.224-0.682z"></path>
<path fill="#fff" d="M1.806 8.31h-0.714l0.582 0.422-0.224 0.68 0.582-0.416 0.578 0.416-0.222-0.68 0.582-0.422h-0.718l-0.222-0.682z"></path>
<path fill="#fff" d="M5.858 8.31h-0.714l0.582 0.422-0.224 0.68 0.578-0.416 0.582 0.416-0.222-0.68 0.582-0.422h-0.718l-0.224-0.682z"></path>
<path fill="#fff" d="M9.912 8.31h-0.714l0.582 0.422-0.224 0.68 0.578-0.416 0.582 0.416-0.224-0.68 0.582-0.422h-0.714l-0.224-0.682z"></path>
<path fill="#fff" d="M13.966 8.31h-0.714l0.582 0.422-0.224 0.68 0.578-0.416 0.582 0.416-0.224-0.68 0.584-0.422h-0.72l-0.222-0.682z"></path>
<path fill="#fff" d="M18.018 8.31h-0.714l0.578 0.422-0.222 0.68 0.578-0.416 0.582 0.416-0.224-0.68 0.582-0.422h-0.718l-0.222-0.682z"></path>
<path fill="#fff" d="M22.072 8.31h-0.714l0.582 0.422-0.222 0.68 0.576-0.416 0.578 0.416-0.222-0.68 0.582-0.422h-0.714l-0.224-0.682z"></path>
<path fill="#fff" d="M3.834 10.030h-0.718l0.578 0.424-0.222 0.682 0.582-0.422 0.576 0.422-0.222-0.682 0.584-0.424h-0.718l-0.222-0.68z"></path>
<path fill="#fff" d="M7.888 10.030h-0.72l0.582 0.424-0.222 0.682 0.582-0.422 0.576 0.422-0.222-0.682 0.584-0.424h-0.718l-0.222-0.68z"></path>
<path fill="#fff" d="M11.942 10.030h-0.72l0.584 0.424-0.222 0.682 0.578-0.422 0.576 0.422-0.222-0.682 0.584-0.424h-0.714l-0.224-0.68z"></path>
<path fill="#fff" d="M15.994 10.030h-0.718l0.582 0.424-0.224 0.682 0.578-0.422 0.582 0.422-0.222-0.682 0.582-0.424h-0.718l-0.224-0.68z"></path>
<path fill="#fff" d="M20.048 10.030h-0.718l0.582 0.424-0.224 0.682 0.578-0.422 0.582 0.422-0.222-0.682 0.578-0.424h-0.714l-0.224-0.68z"></path>
<path fill="#fff" d="M1.806 11.754h-0.714l0.582 0.422-0.224 0.682 0.582-0.422 0.578 0.422-0.222-0.682 0.582-0.422h-0.718l-0.222-0.68z"></path>
<path fill="#fff" d="M5.858 11.754h-0.714l0.582 0.422-0.224 0.682 0.578-0.422 0.582 0.422-0.222-0.682 0.582-0.422h-0.718l-0.224-0.68z"></path>
<path fill="#fff" d="M9.912 11.754h-0.714l0.582 0.422-0.224 0.682 0.578-0.422 0.582 0.422-0.224-0.682 0.582-0.422h-0.714l-0.224-0.68z"></path>
<path fill="#fff" d="M13.966 11.754h-0.714l0.582 0.422-0.224 0.682 0.578-0.422 0.582 0.422-0.224-0.682 0.584-0.422h-0.72l-0.222-0.68z"></path>
<path fill="#fff" d="M18.018 11.754h-0.714l0.578 0.422-0.222 0.682 0.578-0.422 0.582 0.422-0.224-0.682 0.582-0.422h-0.718l-0.222-0.68z"></path>
<path fill="#fff" d="M22.072 11.754h-0.714l0.582 0.422-0.222 0.682 0.576-0.422 0.578 0.422-0.222-0.682 0.582-0.422h-0.714l-0.224-0.68z"></path>
<path fill="#fff" d="M3.834 13.478h-0.718l0.578 0.422-0.222 0.68 0.582-0.416 0.576 0.416-0.222-0.68 0.584-0.422h-0.718l-0.222-0.682z"></path>
<path fill="#fff" d="M7.888 13.478h-0.72l0.582 0.422-0.222 0.68 0.582-0.416 0.576 0.416-0.222-0.68 0.584-0.422h-0.718l-0.222-0.682z"></path>
<path fill="#fff" d="M11.942 13.478h-0.72l0.584 0.422-0.222 0.68 0.578-0.416 0.576 0.416-0.222-0.68 0.584-0.422h-0.714l-0.224-0.682z"></path>
<path fill="#fff" d="M15.994 13.478h-0.718l0.582 0.422-0.224 0.68 0.578-0.416 0.582 0.416-0.222-0.68 0.582-0.422h-0.718l-0.224-0.682z"></path>
<path fill="#fff" d="M20.048 13.478h-0.718l0.582 0.422-0.224 0.68 0.578-0.416 0.582 0.416-0.222-0.68 0.578-0.422h-0.714l-0.224-0.682z"></path>
<path fill="#fff" d="M1.806 15.202h-0.714l0.582 0.418-0.224 0.686 0.582-0.422 0.578 0.422-0.222-0.686 0.582-0.418h-0.718l-0.222-0.682z"></path>
<path fill="#fff" d="M5.858 15.202h-0.714l0.582 0.418-0.224 0.686 0.578-0.422 0.582 0.422-0.222-0.686 0.582-0.418h-0.718l-0.224-0.682z"></path>
<path fill="#fff" d="M9.912 15.202h-0.714l0.582 0.418-0.224 0.686 0.578-0.422 0.582 0.422-0.224-0.686 0.582-0.418h-0.714l-0.224-0.682z"></path>
<path fill="#fff" d="M13.966 15.202h-0.714l0.582 0.418-0.224 0.686 0.578-0.422 0.582 0.422-0.224-0.686 0.584-0.418h-0.72l-0.222-0.682z"></path>
<path fill="#fff" d="M18.018 15.202h-0.714l0.578 0.418-0.222 0.686 0.578-0.422 0.582 0.422-0.224-0.686 0.582-0.418h-0.718l-0.222-0.682z"></path>
<path fill="#fff" d="M22.072 15.202h-0.714l0.582 0.418-0.222 0.686 0.576-0.422 0.578 0.422-0.222-0.686 0.582-0.418h-0.714l-0.224-0.682z"></path>
</svg>
