<?xml version="1.0" encoding="utf-8"?>
<!-- Generated by IcoMoon.io -->
<!DOCTYPE svg PUBLIC "-//W3C//DTD SVG 1.1//EN" "http://www.w3.org/Graphics/SVG/1.1/DTD/svg11.dtd">
<svg version="1.1" xmlns="http://www.w3.org/2000/svg" xmlns:xlink="http://www.w3.org/1999/xlink" width="87" height="32" viewBox="0 0 87 32">
<path fill="#f4f4f4" d="M0 31.603l0.172-0.063v-15.386l-0.172-0.072z"></path>
<path fill="#f4f4f4" d="M0.701 31.348l0.172-0.062v-14.837l-0.172-0.072z"></path>
<path fill="#f4f4f4" d="M1.401 31.094l0.172-0.062v-14.288l-0.172-0.072z"></path>
<path fill="#f4f4f4" d="M2.101 30.839l0.172-0.062v-13.738l-0.172-0.072z"></path>
<path fill="#f4f4f4" d="M2.802 30.585l0.172-0.062v-13.189l-0.172-0.072z"></path>
<path fill="#f4f4f4" d="M3.502 30.33l0.172-0.062v-12.64l-0.172-0.072z"></path>
<path fill="#f4f4f4" d="M4.203 30.076l0.172-0.062v-12.090l-0.172-0.072z"></path>
<path fill="#f4f4f4" d="M4.903 29.821l0.172-0.062v-11.541l-0.172-0.072z"></path>
<path fill="#f4f4f4" d="M5.604 29.567l0.172-0.062v-10.991l-0.172-0.072z"></path>
<path fill="#f4f4f4" d="M6.304 29.312l0.172-0.062v-10.442l-0.172-0.072z"></path>
<path fill="#f4f4f4" d="M7.005 29.058l0.172-0.062v-9.893l-0.172-0.072z"></path>
<path fill="#f4f4f4" d="M7.705 28.803l0.172-0.063v-9.343l-0.172-0.072z"></path>
<path fill="#f4f4f4" d="M8.406 28.549l0.172-0.062v-8.794l-0.172-0.072z"></path>
<path fill="#f4f4f4" d="M9.106 28.294l0.172-0.063v-8.244l-0.172-0.072z"></path>
<path fill="#f4f4f4" d="M9.807 28.040l0.172-0.062v-7.695l-0.172-0.072z"></path>
<path fill="#f4f4f4" d="M10.507 27.786l0.172-0.063v-7.146l-0.172-0.072z"></path>
<path fill="#f4f4f4" d="M11.208 27.531l0.172-0.063v-6.596l-0.172-0.072z"></path>
<path fill="#f4f4f4" d="M11.908 27.277l0.172-0.062v-6.047l-0.172-0.072z"></path>
<path fill="#f4f4f4" d="M12.608 27.022l0.172-0.062v-5.498l-0.172-0.072z"></path>
<path fill="#f4f4f4" d="M13.309 26.768l0.172-0.062v-4.948l-0.172-0.072z"></path>
<path fill="#f4f4f4" d="M14.009 26.513l0.172-0.062v-4.399l-0.172-0.072z"></path>
<path fill="#f4f4f4" d="M14.71 26.259l0.172-0.062v-3.85l-0.172-0.072z"></path>
<path fill="#f4f4f4" d="M15.41 26.004l0.172-0.062v-3.3l-0.172-0.072z"></path>
<path fill="#f4f4f4" d="M16.11 25.75l0.172-0.062v-2.751l-0.172-0.072z"></path>
<path fill="#f4f4f4" d="M16.811 25.495l0.172-0.063v-2.201l-0.172-0.072z"></path>
<path fill="#f4f4f4" d="M17.511 25.241l0.172-0.062v-1.652l-0.172-0.072z"></path>
<path fill="#f4f4f4" d="M18.212 24.986l0.172-0.062v-1.103l-0.172-0.072z"></path>
<path fill="#f4f4f4" d="M18.912 24.732l0.172-0.062v-0.554l-0.172-0.072z"></path>
<path fill="#f4f4f4" d="M19.789 24.414l67.077-11.828v-12.587z"></path>
</svg>
