<?xml version="1.0" encoding="utf-8"?>
<!-- Generated by IcoMoon.io -->
<!DOCTYPE svg PUBLIC "-//W3C//DTD SVG 1.1//EN" "http://www.w3.org/Graphics/SVG/1.1/DTD/svg11.dtd">
<svg version="1.1" xmlns="http://www.w3.org/2000/svg" xmlns:xlink="http://www.w3.org/1999/xlink" width="26" height="32" viewBox="0 0 26 32">
<path d="M4.864 5.888h0.512v0.512h-0.512v-0.512z"></path>
<path d="M5.888 5.888h0.512v0.512h-0.512v-0.512z"></path>
<path d="M6.912 5.888h0.512v0.512h-0.512v-0.512z"></path>
<path d="M5.888 13.568h3.584v-3.584h-3.584v3.584zM6.4 10.496h2.56v2.56h-2.56v-2.56z"></path>
<path d="M11.008 13.568h3.584v-3.584h-3.584v3.584zM11.52 10.496h2.56v2.56h-2.56v-2.56z"></path>
<path d="M11.008 18.688h3.584v-3.584h-3.584v3.584zM11.52 15.616h2.56v2.56h-2.56v-2.56z"></path>
<path d="M16.128 18.688h3.584v-3.584h-3.584v3.584zM16.64 15.616h2.56v2.56h-2.56v-2.56z"></path>
<path d="M9.374 4.864h-5.534v15.872h17.92v-15.872h-12.386zM4.352 5.376h4.706l0.768 1.536h-5.474v-1.536zM21.248 20.224h-16.896v-12.8h16.896v12.8zM10.398 6.912l-0.768-1.536h11.618v1.536h-10.85z"></path>
<path d="M16.384 9.984h3.072v0.512h-3.072v-0.512z"></path>
<path d="M16.384 11.008h3.072v0.512h-3.072v-0.512z"></path>
<path d="M16.384 12.032h3.072v0.512h-3.072v-0.512z"></path>
<path d="M16.384 13.056h2.048v0.512h-2.048v-0.512z"></path>
<path d="M6.144 15.104h3.072v0.512h-3.072v-0.512z"></path>
<path d="M6.144 16.128h3.072v0.512h-3.072v-0.512z"></path>
<path d="M6.144 17.152h3.072v0.512h-3.072v-0.512z"></path>
<path d="M6.144 18.176h2.048v0.512h-2.048v-0.512z"></path>
</svg>
