<?xml version="1.0" encoding="utf-8"?>
<!-- Generated by IcoMoon.io -->
<!DOCTYPE svg PUBLIC "-//W3C//DTD SVG 1.1//EN" "http://www.w3.org/Graphics/SVG/1.1/DTD/svg11.dtd">
<svg version="1.1" xmlns="http://www.w3.org/2000/svg" xmlns:xlink="http://www.w3.org/1999/xlink" width="41" height="32" viewBox="0 0 41 32">
<path fill="#646565" d="M19.684 15.13h0.066v0.066h-0.066v-0.066z"></path>
<path fill="#646565" d="M19.817 15.13h0.066v0.066h-0.066v-0.066z"></path>
<path fill="#646565" d="M19.95 15.13h0.066v0.066h-0.066v-0.066z"></path>
<path fill="#646565" d="M19.817 16.127h0.465v-0.465h-0.465v0.465zM19.883 15.728h0.332v0.332h-0.332v-0.332z"></path>
<path fill="#646565" d="M20.481 16.127h0.465v-0.465h-0.465v0.465zM20.548 15.728h0.332v0.332h-0.332v-0.332z"></path>
<path fill="#646565" d="M20.481 16.791h0.465v-0.465h-0.465v0.465zM20.548 16.393h0.332v0.332h-0.332v-0.332z"></path>
<path fill="#646565" d="M21.146 16.791h0.465v-0.465h-0.465v0.465zM21.212 16.393h0.332v0.332h-0.332v-0.332z"></path>
<path fill="#646565" d="M20.269 14.997h-0.718v2.060h2.326v-2.060h-1.608zM19.617 15.064h0.611l0.1 0.199h-0.71v-0.199zM21.81 16.991h-2.193v-1.661h2.193v1.661zM20.402 15.263l-0.1-0.199h1.508v0.199h-1.408z"></path>
<path fill="#646565" d="M21.179 15.662h0.399v0.066h-0.399v-0.066z"></path>
<path fill="#646565" d="M21.179 15.794h0.399v0.066h-0.399v-0.066z"></path>
<path fill="#646565" d="M21.179 15.927h0.399v0.066h-0.399v-0.066z"></path>
<path fill="#646565" d="M21.179 16.060h0.266v0.066h-0.266v-0.066z"></path>
<path fill="#646565" d="M19.85 16.326h0.399v0.066h-0.399v-0.066z"></path>
<path fill="#646565" d="M19.85 16.459h0.399v0.066h-0.399v-0.066z"></path>
<path fill="#646565" d="M19.85 16.592h0.399v0.066h-0.399v-0.066z"></path>
<path fill="#646565" d="M19.85 16.725h0.266v0.066h-0.266v-0.066z"></path>
</svg>
