<?xml version="1.0" encoding="utf-8"?>
<!-- Generated by IcoMoon.io -->
<!DOCTYPE svg PUBLIC "-//W3C//DTD SVG 1.1//EN" "http://www.w3.org/Graphics/SVG/1.1/DTD/svg11.dtd">
<svg version="1.1" xmlns="http://www.w3.org/2000/svg" xmlns:xlink="http://www.w3.org/1999/xlink" width="28" height="32" viewBox="0 0 28 32">
<path fill="#0070be" d="M28 5.4v24c0 1.4-1.2 2.6-2.8 2.6h-22.4c-1.6 0-2.8-1.2-2.8-2.6v-26.8c0-1.4 1.2-2.6 2.8-2.6h19.2l6 5.4z"></path>
<path fill="#fff" d="M21 0.8v3c0 1.4 1.2 2.6 2.8 2.6h3.4z"></path>
<path fill="#fff" d="M3.2 9v17.4l12.8 2v-21.6z"></path>
<path fill="#fff" d="M16.6 10v8.2h5.8v6h-5.8v2h7.8v-16.2z"></path>
<path fill="#0070be" d="M8.4 21.2h-1.6l-1.4-7.2h1.4l0.8 5.2 1-5.4h1.6l1 5.4 0.8-5.6h1.6l-1.8 7.8h-1.4l-1-5.2z"></path>
</svg>
