<?xml version="1.0" encoding="utf-8"?>
<!-- Generated by IcoMoon.io -->
<!DOCTYPE svg PUBLIC "-//W3C//DTD SVG 1.1//EN" "http://www.w3.org/Graphics/SVG/1.1/DTD/svg11.dtd">
<svg version="1.1" xmlns="http://www.w3.org/2000/svg" xmlns:xlink="http://www.w3.org/1999/xlink" width="32" height="32" viewBox="0 0 32 32">
<path d="M26.036 1.662l-10.036 10.026-10.032-10.026c-0.598-0.596-1.372-0.896-2.154-0.896-0.778 0-1.558 0.3-2.152 0.894-1.194 1.186-1.194 3.12 0 4.308l10.026 10.032-10.026 10.032c-1.194 1.188-1.194 3.122 0 4.308 0.592 0.602 1.374 0.894 2.152 0.894 0.782 0 1.556-0.292 2.156-0.894l10.030-10.028 10.036 10.028c0.59 0.602 1.364 0.894 2.148 0.894 0.782 0 1.558-0.292 2.156-0.894 1.192-1.188 1.192-3.122 0-4.308l-10.032-10.032 10.032-10.032c1.192-1.188 1.192-3.122 0-4.308-0.598-0.594-1.376-0.894-2.156-0.894-0.786 0-1.558 0.3-2.148 0.896z"></path>
</svg>
