<?xml version="1.0" encoding="utf-8"?>
<!-- Generated by IcoMoon.io -->
<!DOCTYPE svg PUBLIC "-//W3C//DTD SVG 1.1//EN" "http://www.w3.org/Graphics/SVG/1.1/DTD/svg11.dtd">
<svg version="1.1" xmlns="http://www.w3.org/2000/svg" xmlns:xlink="http://www.w3.org/1999/xlink" width="33" height="32" viewBox="0 0 33 32">
<path d="M11.445 21.648h2.507v1.061h-2.507v-1.061z"></path>
<path d="M11.445 19.502h2.507v1.061h-2.507v-1.061z"></path>
<path d="M11.445 23.795h2.507v1.061h-2.507v-1.061z"></path>
<path d="M11.407 25.942h2.507v1.061h-2.507v-1.061z"></path>
<path d="M13.952 22.722h2.505v1.061h-2.505v-1.061z"></path>
<path d="M13.952 20.575h2.505v1.061h-2.505v-1.061z"></path>
<path d="M13.952 24.869h2.505v1.061h-2.505v-1.061z"></path>
<path d="M13.912 27.015h2.507v1.061h-2.507v-1.061z"></path>
<path d="M16.296 16c0.34 1.549-0.724 2.816-2.368 2.816s-2.712-1.267-2.373-2.816c0.336-1.549 1.402-2.816 2.366-2.816s2.033 1.267 2.375 2.816zM15.331 16.055c-0.227-1.084-0.88-1.971-1.45-1.971s-1.232 0.887-1.468 1.971c-0.238 1.084 0.415 1.971 1.45 1.971 1.033-0.002 1.695-0.887 1.468-1.971z"></path>
<path d="M23.056 3.123c-0.344-0.331-0.585-0.927-1.637-0.826-0.101 0.033-0.3 0.093-0.38 0.157-2.209 1.216-5.374 3.467-7.142 7.029-1.381-2.776-3.615-4.747-5.568-6.047-0.88-0.633-1.269-0.653-1.563-0.697-0.667-0.037-1.029 0.099-1.615 0.611-0.329 0.335-0.569 0.838-0.569 1.606 0 2.564 0 22.541 0 22.541s0.108 2.216 2.267 2.216c2.161 0 19.112 0 19.112 0s2.344 0.038 2.344-2.224 0-19.178 0-19.178l-5.25-5.188zM25.933 27.447h-19.006c0 0-0.042-22.151-0.042-22.49s0.373-0.421 0.55-0.282c2.15 1.457 4.637 3.807 5.638 7.265 0.093 0.325 0.441 0.554 0.83 0.554s0.728-0.229 0.823-0.554c0.973-3.365 3.407-5.712 5.541-7.195-0.006 0.104-0.006 0.165-0.006 0.165s0 1.726 0 3.527c0 2.094 2.242 2.196 2.242 2.196h3.432v16.814zM22.607 9.463c0 0-0.426-0.026-0.752-0.369-0.269-0.282-0.322-0.682-0.322-0.682v-3.454l4.506 4.506h-3.432z"></path>
</svg>
